<svg xmlns="http://www.w3.org/2000/svg" width="96.804" height="100" viewBox="0 0 96.804 100">
  <g id="ico_Cesta_de_compra" data-name="ico Cesta de compra" transform="translate(-8.181)">
    <path id="Caminho_1125" data-name="Caminho 1125" d="M65.756,143.186a6.782,6.782,0,0,1,6.754,6.184l5.159,58.475a6.779,6.779,0,0,1-6.754,7.375H14.962a6.779,6.779,0,0,1-6.754-7.375l5.159-58.475a6.782,6.782,0,0,1,6.754-6.184Z" transform="translate(0 -115.22)" fill="#ffaa64"/>
    <path id="Caminho_1126" data-name="Caminho 1126" d="M67.587,153.787a66.266,66.266,0,0,0-43.535,54.49,7.937,7.937,0,0,1-7.874,6.941H14.962a6.779,6.779,0,0,1-6.754-7.375l5.159-58.475a6.782,6.782,0,0,1,6.754-6.184c.308,0,45.7,0,45.913.006C71.957,143.428,73.165,151.778,67.587,153.787Z" transform="translate(0 -115.218)" fill="#ffbd7b"/>
    <path id="Caminho_1127" data-name="Caminho 1127" d="M129.581,38.983a1.7,1.7,0,0,1-1.695-1.695v-19.7a14.195,14.195,0,1,0-28.39,0v19.7a1.695,1.695,0,1,1-3.39,0v-19.7a17.585,17.585,0,1,1,35.17,0v19.7A1.7,1.7,0,0,1,129.581,38.983Z" transform="translate(-70.752)" fill="#4d4e59"/>
    <path id="Caminho_1128" data-name="Caminho 1128" d="M78.632,449.221H66.344a1.695,1.695,0,1,1,0-3.39H78.632a1.695,1.695,0,1,1,0,3.39Z" transform="translate(-45.439 -358.755)" fill="#fff"/>
    <path id="Caminho_1129" data-name="Caminho 1129" d="M78.632,405.831H66.344a1.695,1.695,0,1,1,0-3.39H78.632a1.695,1.695,0,1,1,0,3.39Z" transform="translate(-45.439 -323.839)" fill="#fff"/>
    <path id="Caminho_1130" data-name="Caminho 1130" d="M272.75,273.085a4.234,4.234,0,0,1-3-1.241c-16.791-16.791-16.025-16.021-16.038-16.045a20.551,20.551,0,1,1,5.989-5.989l16.042,16.04a4.243,4.243,0,0,1-3,7.235Z" transform="translate(-172.007 -175.449)" fill="#d6f4fc"/>
    <path id="Caminho_1131" data-name="Caminho 1131" d="M406.66,396.764a4.238,4.238,0,1,1-5.994,5.994c-16.791-16.791-16.025-16.021-16.038-16.045a20.61,20.61,0,0,0,5.989-5.989Z" transform="translate(-302.92 -306.364)" fill="#fe4f60"/>
    <path id="Caminho_1132" data-name="Caminho 1132" d="M244.7,218.142a3.578,3.578,0,0,1,.548,7.005,20.541,20.541,0,0,0-14.93,19.917,3.585,3.585,0,0,1-6.9,1.4A20.591,20.591,0,0,1,244.7,218.142Z" transform="translate(-171.916 -175.429)" fill="#e8f8fc"/>
    <path id="Caminho_1133" data-name="Caminho 1133" d="M266.969,273.8a1.7,1.7,0,0,1-.857-2.239,12.886,12.886,0,0,1,5.046-5.751,1.695,1.695,0,1,1,1.774,2.889,9.514,9.514,0,0,0-3.725,4.244,1.7,1.7,0,0,1-2.239.857Z" transform="translate(-207.435 -213.689)" fill="#fff"/>
    <path id="Caminho_1134" data-name="Caminho 1134" d="M394.558,384.654a20.609,20.609,0,0,1-5.989,5.989c-.011,0-3.916-3.905-3.93-3.93a20.609,20.609,0,0,0,5.989-5.989Z" transform="translate(-302.93 -306.364)" fill="#e84857"/>
  </g>
</svg>
