<svg xmlns="http://www.w3.org/2000/svg" width="470.707" height="484.607" viewBox="0 0 470.707 484.607">
  <g id="cart" transform="translate(-147.225 -264.035)">
    <g id="blob-shape" transform="translate(147.225 264.035)">
      <path id="Caminho_43584" data-name="Caminho 43584" d="M318.269-7.489c20.4,93.928-48.715,185.878-131.378,241.747S8.169,309.767-59.728,266.228-167.661,115.821-139.955,12.149C-112.4-91.522-17.407-192.149,85.2-194.584S297.87-101.265,318.269-7.489Z" transform="translate(148.83 194.63)" fill="#e5e7e8"/>
    </g>
    <g id="ico_Cesta_de_compra" data-name="ico Cesta de compra" transform="translate(179.044 286.39)">
      <path id="Caminho_1125" data-name="Caminho 1125" d="M240.348,143.186a27.348,27.348,0,0,1,27.236,24.938l20.8,235.793a27.337,27.337,0,0,1-27.236,29.739H35.525A27.336,27.336,0,0,1,8.289,403.916l20.8-235.793a27.346,27.346,0,0,1,27.236-24.938Z" transform="translate(0 -30.416)" fill="#ffaa64"/>
      <path id="Caminho_1126" data-name="Caminho 1126" d="M247.73,185.944c-98.645,35.534-163.068,121.2-175.549,219.724a32.006,32.006,0,0,1-31.752,27.987h-4.9A27.336,27.336,0,0,1,8.289,403.916l20.8-235.793a27.346,27.346,0,0,1,27.236-24.938c1.241,0,184.269-.013,185.138.023C265.352,144.171,270.22,177.842,247.73,185.944Z" transform="translate(0 -30.415)" fill="#ffbd7b"/>
      <path id="Caminho_1127" data-name="Caminho 1127" d="M231.089,157.195a6.835,6.835,0,0,1-6.835-6.835V70.909a57.239,57.239,0,1,0-114.479,0V150.36a6.835,6.835,0,1,1-13.669,0V70.909a70.909,70.909,0,1,1,141.817,0V150.36A6.834,6.834,0,0,1,231.089,157.195Z" transform="translate(-18.677)" fill="#4d4e59"/>
      <path id="Caminho_1128" data-name="Caminho 1128" d="M121.034,459.5H71.484a6.834,6.834,0,1,1,0-13.668h49.55a6.834,6.834,0,1,1,0,13.668Z" transform="translate(-11.995 -94.705)" fill="#fff"/>
      <path id="Caminho_1129" data-name="Caminho 1129" d="M121.034,416.11H71.484a6.835,6.835,0,1,1,0-13.669h49.55a6.835,6.835,0,1,1,0,13.669Z" transform="translate(-11.995 -85.488)" fill="#fff"/>
      <path id="Caminho_1130" data-name="Caminho 1130" d="M426.837,440.02a17.074,17.074,0,0,1-12.089-5.006c-67.706-67.707-64.619-64.6-64.672-64.7-54.65,35.74-128.14-3.387-128.14-69.414a82.87,82.87,0,0,1,82.869-82.869c66.123,0,105.088,73.6,69.422,128.131l64.689,64.681c10.8,10.8,3,29.175-12.081,29.175Z" transform="translate(-45.407 -46.315)" fill="#d6f4fc"/>
      <path id="Caminho_1131" data-name="Caminho 1131" d="M473.476,445.4a17.09,17.09,0,0,1-24.169,24.169c-67.706-67.707-64.619-64.6-64.672-64.7a83.107,83.107,0,0,0,24.152-24.152Z" transform="translate(-79.966 -80.875)" fill="#fe4f60"/>
      <path id="Caminho_1132" data-name="Caminho 1132" d="M314.085,218.545c15.8,1.765,17.48,23.845,2.208,28.248-34.56,9.964-60.472,41.53-60.206,80.315.109,15.946-21.69,20.373-27.826,5.655C204.109,274.835,251.258,211.526,314.085,218.545Z" transform="translate(-45.383 -46.31)" fill="#e8f8fc"/>
      <path id="Caminho_1133" data-name="Caminho 1133" d="M270.015,298.785a6.834,6.834,0,0,1-3.454-9.027,51.961,51.961,0,0,1,20.349-23.191,6.835,6.835,0,1,1,7.153,11.648,38.364,38.364,0,0,0-15.021,17.115,6.836,6.836,0,0,1-9.027,3.455Z" transform="translate(-54.759 -56.41)" fill="#fff"/>
      <path id="Caminho_1134" data-name="Caminho 1134" d="M424.637,396.572a83.1,83.1,0,0,1-24.152,24.152c-.043,0-15.79-15.747-15.848-15.848a83.1,83.1,0,0,0,24.152-24.152Z" transform="translate(-79.968 -80.875)" fill="#e84857"/>
    </g>
  </g>
</svg>
