<svg id="Grupo_7941" data-name="Grupo 7941" xmlns="http://www.w3.org/2000/svg" width="141.336" height="141.336" viewBox="0 0 141.336 141.336">
  <path id="Caminho_43607" data-name="Caminho 43607" d="M141.336,70.668A70.668,70.668,0,1,1,70.668,0,70.667,70.667,0,0,1,141.336,70.668Z" fill="#60b2fc"/>
  <path id="Caminho_43608" data-name="Caminho 43608" d="M222.365,149.887c0-.318-.007-.634-.012-.951L182.9,109.487l-23.562,6.366-2.094-2.094-12.715,2.456-6.787-6.79-18.772,14.895-7.048,20.66L127.944,160.8l-10.853,33.159,26.079,26.079a71.618,71.618,0,0,0,8.527.513A70.667,70.667,0,0,0,222.365,149.887Z" transform="translate(-81.029 -79.219)" fill="#3965cc"/>
  <path id="Caminho_43609" data-name="Caminho 43609" d="M158.946,107.748l-7.654-7.8a12.051,12.051,0,1,0-8.6,20.49h22.554V107.748Z" transform="translate(-94.575 -69.74)" fill="#f64213"/>
  <path id="Caminho_43610" data-name="Caminho 43610" d="M278.554,96.332a11.962,11.962,0,0,0-8.6,3.615l-7.654,7.8H256v12.688h22.554a12.052,12.052,0,1,0,0-24.1Z" transform="translate(-185.332 -69.74)" fill="#ed2400"/>
  <path id="Caminho_43611" data-name="Caminho 43611" d="M130.637,219.516h34.606v54.147H130.637Z" transform="translate(-94.575 -158.919)" fill="#ff6"/>
  <path id="Caminho_43612" data-name="Caminho 43612" d="M256,219.516h34.606v54.147H256Z" transform="translate(-185.332 -158.919)" fill="#ffd15e"/>
  <path id="Caminho_43613" data-name="Caminho 43613" d="M111.926,163.383H151.7v20.66H111.926Z" transform="translate(-81.029 -118.282)" fill="#ffffc2"/>
  <path id="Caminho_43614" data-name="Caminho 43614" d="M256,163.383h39.771v20.66H256Z" transform="translate(-185.332 -118.282)" fill="#ffea7c"/>
  <path id="Caminho_43615" data-name="Caminho 43615" d="M254.718,124.353a7.747,7.747,0,0,0-7.748-7.748l-3.443,18.078,11.191-5.165Z" transform="translate(-176.302 -84.417)" fill="#f64213"/>
  <path id="Caminho_43616" data-name="Caminho 43616" d="M227.934,124.353v5.165l7.748,5.165V116.605A7.747,7.747,0,0,0,227.934,124.353Z" transform="translate(-165.014 -84.417)" fill="#ff6126"/>
  <path id="Caminho_43617" data-name="Caminho 43617" d="M246.97,163.383,243.527,183.7l3.443,19.8,7.748,5.165v-45.28Z" transform="translate(-176.302 -118.282)" fill="#ed2400"/>
  <path id="Caminho_43618" data-name="Caminho 43618" d="M227.934,163.383v45.28l7.748-5.165V163.383Z" transform="translate(-165.014 -118.282)" fill="#f64213"/>
</svg>
