<svg xmlns="http://www.w3.org/2000/svg" width="139.371" height="139.371" viewBox="0 0 139.371 139.371">
  <g id="ico_texto" data-name="ico texto" transform="translate(-839.601 -114.443)">
    <path id="Caminho_1029" data-name="Caminho 1029" d="M1027.742,131.865V114.443h-17.421v8.711H957.47v8.711h52.851V236.393H957.47V245.1h52.851v8.711h17.421V236.393h-8.711V131.865Z" transform="translate(-48.77)" fill="#01223c"/>
    <path id="Caminho_1030" data-name="Caminho 1030" d="M857.022,236.393V131.865h52.264v-8.711H857.022v-8.711H839.6v17.421h8.711V236.393H839.6v17.421h17.421V245.1h52.264v-8.711Z" fill="#00366d"/>
    <path id="Caminho_1031" data-name="Caminho 1031" d="M957.47,173.878v69.686h18.007v-8.711H962.412V182.589h21.777V200.01H992.9V173.878Z" transform="translate(-48.77 -24.592)" fill="#cc722e"/>
    <path id="Caminho_1032" data-name="Caminho 1032" d="M899.035,173.878V200.01h8.711V182.589h21.777v52.264H916.457v8.711h17.422V173.878Z" transform="translate(-24.592 -24.592)" fill="#e58230"/>
  </g>
</svg>
