<svg xmlns="http://www.w3.org/2000/svg" width="125.052" height="139.188" viewBox="0 0 125.052 139.188">
  <g id="ico_cores" data-name="ico cores" transform="translate(-273.349 -112.127)">
    <path id="Caminho_1041" data-name="Caminho 1041" d="M320.283,116.924l-10.434,5.247h0l-5.287,2.659h0l-3.2,1.608a11.348,11.348,0,0,0-6.084,6.256l-12.287,26.9-.3.652-.613,1.342q-.5,1.1-1.01,2.21l-2.928,6.41L299.895,183.8v66.875h38.059V143.564h0V119.645A66.931,66.931,0,0,1,320.283,116.924Zm17.67,16.311Z" transform="translate(-2.078 -2.078)" fill="#f6f6f6"/>
    <path id="Caminho_1042" data-name="Caminho 1042" d="M438.567,159.593l-12.287-26.9a11.348,11.348,0,0,0-6.084-6.256l-3.25-1.634h0l-.311-.156-4.925-2.477h0l-10.433-5.247a66.93,66.93,0,0,1-17.67,2.721V121.1l-.065,55.008.065-.046v74.611h38.058V183.8h0l21.749-13.593Z" transform="translate(-47.733 -2.078)" fill="#dcdcdc"/>
    <path id="Caminho_1043" data-name="Caminho 1043" d="M383.658,163.923Z" transform="translate(-47.783 -22.436)" fill="#ffea60"/>
    <path id="Caminho_1044" data-name="Caminho 1044" d="M467.7,192.2h0l4.848,10.613L450.8,216.406h0l.082-.051,21.667-13.542Z" transform="translate(-76.867 -34.685)" fill="#ffea60"/>
    <path id="Caminho_1045" data-name="Caminho 1045" d="M381.579,164.834a2.719,2.719,0,0,0,0-5.437h0a2.719,2.719,0,0,0,0,5.437Z" transform="translate(-45.704 -20.476)" fill="#00366d"/>
    <path id="Caminho_1046" data-name="Caminho 1046" d="M324.38,124.294l-5,2.515A25.164,25.164,0,0,0,333.4,141.946a2.719,2.719,0,1,1-2.163,4.989,30.687,30.687,0,0,1-16.762-17.66l-5.539,2.785a8.717,8.717,0,0,0-4.832,4.956l-11.3,24.728,10.718,6.7v-3.2a2.719,2.719,0,0,1,5.437,0v75.032H344.3V139.3C334.542,139.3,326.364,132.86,324.38,124.294Z" transform="translate(-8.43 -5.27)" fill="none"/>
    <path id="Caminho_1047" data-name="Caminho 1047" d="M372.606,133.425v-8.293a62.817,62.817,0,0,1-14.46-1.846C359.831,129.114,365.675,133.425,372.606,133.425Z" transform="translate(-36.732 -4.834)" fill="none"/>
    <path id="Caminho_1048" data-name="Caminho 1048" d="M321.311,338.5v5.438H356.65V338.5H321.311Z" transform="translate(-20.776 -98.057)" fill="none"/>
    <path id="Caminho_1049" data-name="Caminho 1049" d="M419,240.275h0V165.243a2.719,2.719,0,1,1,5.437,0v3.2l10.716-6.7-11.294-24.725a8.716,8.716,0,0,0-4.833-4.956l-5.538-2.785a30.69,30.69,0,0,1-16.765,17.66,2.719,2.719,0,0,1-2.163-4.989,25.166,25.166,0,0,0,14.024-15.138l-5-2.515C401.6,132.86,393.42,139.3,383.657,139.3h0V240.275Z" transform="translate(-47.782 -5.27)" fill="none"/>
    <path id="Caminho_1050" data-name="Caminho 1050" d="M419,343.935V338.5h-35.34v5.438Z" transform="translate(-47.782 -98.057)" fill="none"/>
    <path id="Caminho_1051" data-name="Caminho 1051" d="M383.657,133.425c6.932,0,12.776-4.311,14.462-10.139a62.8,62.8,0,0,1-14.462,1.846v8.293Z" transform="translate(-47.782 -4.834)" fill="none"/>
    <path id="Caminho_1052" data-name="Caminho 1052" d="M455.6,207.279v7.236l15.566-9.729-2.571-5.629Z" transform="translate(-78.944 -37.699)" fill="none"/>
    <path id="Caminho_1053" data-name="Caminho 1053" d="M284.257,204.789l15.566,9.729v-7.232l-13-8.123Z" transform="translate(-4.725 -37.701)" fill="none"/>
    <path id="Caminho_1054" data-name="Caminho 1054" d="M445.937,167,428.8,129.487a14.031,14.031,0,0,0-7.335-7.555l-18.919-9.515a2.722,2.722,0,0,0-1.925-.2,64.257,64.257,0,0,1-16.967,2.645V120.3a62.8,62.8,0,0,0,14.462-1.846c-1.686,5.828-7.529,10.139-14.462,10.139h0v5.438h0c9.763,0,17.941-6.439,19.926-15.005l5,2.515a25.166,25.166,0,0,1-14.024,15.138,2.719,2.719,0,1,0,2.163,4.989,30.69,30.69,0,0,0,16.765-17.66l5.538,2.785a8.716,8.716,0,0,1,4.833,4.956l11.294,24.725-10.716,6.7v-3.2a2.719,2.719,0,0,0-5.437,0V235H383.657v5.436H419v5.438h-35.34v5.437h38.059a2.719,2.719,0,0,0,2.719-2.719V183.228l20.471-12.794A2.719,2.719,0,0,0,445.937,167Zm-21.5,9.818v-7.236l13-8.122L440,167.088Z" transform="translate(-47.782 0)" fill="#01223c"/>
    <path id="Caminho_1055" data-name="Caminho 1055" d="M300.535,245.878V240.44h35.34V235h-35.34V159.973a2.719,2.719,0,1,0-5.437,0v3.2l-10.718-6.7,11.3-24.728a8.717,8.717,0,0,1,4.832-4.956L306.046,124a30.687,30.687,0,0,0,16.762,17.66,2.719,2.719,0,0,0,2.163-4.989,25.164,25.164,0,0,1-14.023-15.137l5-2.515c1.984,8.566,10.162,15.005,19.925,15.005v-5.438c-6.932,0-12.776-4.311-14.46-10.139a62.817,62.817,0,0,0,14.46,1.846v-5.434a64.27,64.27,0,0,1-16.966-2.645,2.718,2.718,0,0,0-1.925.2l-18.918,9.515a14.031,14.031,0,0,0-7.335,7.555L273.595,167a2.718,2.718,0,0,0,1.032,3.435L295.1,183.228V248.6a2.719,2.719,0,0,0,2.719,2.719h38.058v-5.437ZM295.1,176.817l-15.566-9.729,2.57-5.626,13,8.123Z" transform="translate(0 0)" fill="#00366d"/>
  </g>
</svg>
