<svg xmlns="http://www.w3.org/2000/svg" width="101.123" height="94.116" viewBox="0 0 101.123 94.116">
  <g id="ico_minhas_compras" data-name="ico minhas compras" transform="translate(-16 -32.63)">
    <path id="Caminho_1187" data-name="Caminho 1187" d="M351.4,235.962v42.577a4.865,4.865,0,0,1-4.862,4.864H317.672a4.863,4.863,0,0,1-4.862-4.864h0V235.962a4.861,4.861,0,0,1,4.861-4.862h6.568v.015a3.614,3.614,0,0,0,3.613,3.615h8.507a3.614,3.614,0,0,0,3.615-3.613V231.1h6.567A4.863,4.863,0,0,1,351.4,235.962Zm-25.087,26.956V255.97H319.37v6.948Z" transform="translate(-234.28 -156.658)" fill="#f8ec7d"/>
    <path id="Caminho_1188" data-name="Caminho 1188" d="M367.06,216.726v-.221a3.614,3.614,0,0,1,3.613-3.615h8.507A3.614,3.614,0,0,1,382.8,216.5v.238a3.614,3.614,0,0,1-3.613,3.615h-8.507a3.614,3.614,0,0,1-3.615-3.613v-.016Z" transform="translate(-277.101 -142.284)" fill="#6fe3ff"/>
    <path id="Caminho_1189" data-name="Caminho 1189" d="M243.185,140.972v15.149h-1.494a3.614,3.614,0,0,0-3.615,3.613v.223h-6.567a4.861,4.861,0,0,0-4.862,4.861v31.35l-23,13.277V163.792l39.531-22.822Z" transform="translate(-148.117 -85.516)" fill="#c16752"/>
    <path id="Caminho_1190" data-name="Caminho 1190" d="M128.143,120.19,107.99,108.554,147.519,85.73h0l20.153,11.638Z" transform="translate(-72.61 -41.913)" fill="#af593c"/>
    <rect id="Retângulo_327" data-name="Retângulo 327" width="6.946" height="6.948" transform="translate(85.09 99.312)" fill="#6fe3ff"/>
    <path id="Caminho_1191" data-name="Caminho 1191" d="M74.924,43.817,35.4,66.641,16.02,55.454,55.549,32.63Z" transform="translate(-0.016)" fill="#c16752"/>
    <path id="Caminho_1192" data-name="Caminho 1192" d="M55.533,163.792v45.653L16,186.621V140.972l0,0L35.38,152.157Z" transform="translate(0 -85.516)" fill="#e48e66"/>
    <path id="Caminho_1193" data-name="Caminho 1193" d="M339.969,287.927h-1.544a1.475,1.475,0,0,1-1.475-1.475V279.5a1.475,1.475,0,0,1,1.475-1.475h6.946a1.475,1.475,0,0,1,1.475,1.475v.992a1.475,1.475,0,0,1-2.869.482H339.9v4h.07a1.475,1.475,0,1,1,0,2.949Z" transform="translate(-253.335 -193.701)" fill="#6fe3ff"/>
    <path id="Caminho_1194" data-name="Caminho 1194" d="M339.969,416.165h-1.544a1.475,1.475,0,0,1-1.475-1.475h0v-6.946a1.475,1.475,0,0,1,1.475-1.475h6.946a1.475,1.475,0,0,1,1.475,1.475v1.42a1.475,1.475,0,1,1-2.949.055h-4v4h.07a1.475,1.475,0,1,1,0,2.949Z" transform="translate(-253.335 -294.924)" fill="#6fe3ff"/>
    <path id="Caminho_1195" data-name="Caminho 1195" d="M358.182,292.856a1.469,1.469,0,0,1-1.042-.431l-2.358-2.355a1.475,1.475,0,0,1,2.086-2.086l1.315,1.314,4.319-4.319a1.475,1.475,0,1,1,2.086,2.086l-5.362,5.362A1.47,1.47,0,0,1,358.182,292.856Z" transform="translate(-267.068 -198.845)" fill="#2561a1"/>
    <path id="Caminho_1196" data-name="Caminho 1196" d="M358.182,422.106a1.469,1.469,0,0,1-1.042-.431l-2.358-2.355a1.475,1.475,0,0,1,2.086-2.086l1.315,1.314,4.319-4.319a1.475,1.475,0,1,1,2.086,2.086l-5.362,5.362A1.47,1.47,0,0,1,358.182,422.106Z" transform="translate(-267.068 -300.865)" fill="#2561a1"/>
    <path id="Caminho_1197" data-name="Caminho 1197" d="M424.628,297.469h-9.263a1.475,1.475,0,0,1,0-2.949h9.263a1.475,1.475,0,0,1,0,2.949Z" transform="translate(-314.065 -206.717)" fill="#e48e66"/>
    <path id="Caminho_1198" data-name="Caminho 1198" d="M424.628,361.589h-9.263a1.475,1.475,0,0,1,0-2.949h9.263a1.475,1.475,0,1,1,0,2.949Z" transform="translate(-314.065 -257.329)" fill="#e48e66"/>
    <path id="Caminho_1199" data-name="Caminho 1199" d="M424.628,425.709h-9.263a1.475,1.475,0,1,1,0-2.949h9.263a1.475,1.475,0,1,1,0,2.949Z" transform="translate(-314.065 -307.94)" fill="#e48e66"/>
  </g>
</svg>
