<svg xmlns="http://www.w3.org/2000/svg" width="120.286" height="120.286" viewBox="0 0 120.286 120.286">
  <g id="Grupo_745" data-name="Grupo 745" transform="translate(-1166.951 -341.17)">
    <g id="Grupo_741" data-name="Grupo 741" transform="translate(1166.951 341.17)">
      <g id="Grupo_740" data-name="Grupo 740">
        <g id="Grupo_739" data-name="Grupo 739">
          <g id="Grupo_738" data-name="Grupo 738">
            <g id="Grupo_737" data-name="Grupo 737">
              <g id="Grupo_736" data-name="Grupo 736">
                <g id="Grupo_735" data-name="Grupo 735">
                  <g id="Grupo_734" data-name="Grupo 734">
                    <g id="Grupo_733" data-name="Grupo 733">
                      <g id="Grupo_732" data-name="Grupo 732">
                        <g id="Grupo_731" data-name="Grupo 731">
                          <g id="Grupo_730" data-name="Grupo 730">
                            <g id="Grupo_729" data-name="Grupo 729">
                              <g id="Grupo_728" data-name="Grupo 728">
                                <g id="Grupo_727" data-name="Grupo 727">
                                  <g id="Grupo_726" data-name="Grupo 726">
                                    <g id="Grupo_725" data-name="Grupo 725">
                                      <circle id="Elipse_13" data-name="Elipse 13" cx="60.143" cy="60.143" r="60.143" fill="#fedd55"/>
                                    </g>
                                  </g>
                                </g>
                              </g>
                            </g>
                          </g>
                        </g>
                      </g>
                    </g>
                  </g>
                </g>
              </g>
            </g>
          </g>
        </g>
      </g>
    </g>
    <path id="Caminho_1155" data-name="Caminho 1155" d="M1314.412,428.489q0-1.6-.084-3.183l-27.774-27.774-63.242,63.242,27.774,27.774q1.581.082,3.183.084A60.143,60.143,0,0,0,1314.412,428.489Z" transform="translate(-27.175 -27.176)" fill="#fcc63d"/>
    <g id="Grupo_744" data-name="Grupo 744" transform="translate(1182.364 356.583)">
      <circle id="Elipse_14" data-name="Elipse 14" cx="44.73" cy="44.73" r="44.73" transform="translate(0)" fill="#6fb944"/>
      <path id="Caminho_1156" data-name="Caminho 1156" d="M1327.823,415.666a44.729,44.729,0,0,1-44.729,44.729V370.937A44.729,44.729,0,0,1,1327.823,415.666Z" transform="translate(-1238.364 -370.936)" fill="#2d8e43"/>
      <g id="Grupo_742" data-name="Grupo 742" transform="translate(15.944 23.614)">
        <path id="Caminho_1157" data-name="Caminho 1157" d="M1253.38,458.768l-25.875-22.946,10.132-11.425,15.193,13.473,21.649-21.335,10.719,10.877Z" transform="translate(-1227.505 -416.535)" fill="#fff"/>
      </g>
      <g id="Grupo_743" data-name="Grupo 743" transform="translate(44.73 23.614)">
        <path id="Caminho_1158" data-name="Caminho 1158" d="M1312,427.411,1283.094,455.9v-21.44l18.188-17.923Z" transform="translate(-1283.094 -416.536)" fill="#eae1dc"/>
      </g>
    </g>
  </g>
</svg>
