<svg xmlns="http://www.w3.org/2000/svg" width="138.954" height="139.112" viewBox="0 0 138.954 139.112">
  <g id="ico_estampas" data-name="ico estampas" transform="translate(-532.823 -114.443)">
    <path id="Caminho_1033" data-name="Caminho 1033" d="M602.379,215.6a42.746,42.746,0,0,1-30.443-12.614,3.952,3.952,0,0,1,5.588-5.588,34.884,34.884,0,0,0,24.854,10.3h0V114.443h0a69.556,69.556,0,0,0,0,139.112h0V215.6Zm-36.868-39.5a13.167,13.167,0,0,1,26.335,0,3.95,3.95,0,0,1-7.9,0,5.267,5.267,0,1,0-10.534,0,3.95,3.95,0,0,1-7.9,0Z" transform="translate(0 0)" fill="#00366d"/>
    <path id="Caminho_1034" data-name="Caminho 1034" d="M724.343,184a69.556,69.556,0,0,0-69.553-69.556V207.7a34.921,34.921,0,0,0,24.857-10.3,3.951,3.951,0,0,1,5.588,5.588A42.785,42.785,0,0,1,654.79,215.6v37.954A69.556,69.556,0,0,0,724.343,184Zm-36.638-3.951a3.952,3.952,0,0,1-3.95-3.95,5.267,5.267,0,1,0-10.534,0,3.95,3.95,0,0,1-7.9,0,13.167,13.167,0,0,1,26.335,0A3.952,3.952,0,0,1,687.705,180.049Z" transform="translate(-52.566 0)" fill="#01223c"/>
    <path id="Caminho_1035" data-name="Caminho 1035" d="M607.191,125.608a63.2,63.2,0,0,0,0,126.406h0V125.608Z" transform="translate(-4.812 -4.812)" fill="#ffea60"/>
    <path id="Caminho_1036" data-name="Caminho 1036" d="M717.676,188.811a63.2,63.2,0,0,0-63.2-63.2V252.014A63.2,63.2,0,0,0,717.676,188.811Z" transform="translate(-52.431 -4.812)" fill="#f2d649"/>
    <path id="Caminho_1037" data-name="Caminho 1037" d="M598.169,212.825a5.267,5.267,0,0,1,10.534,0,3.95,3.95,0,0,0,7.9,0,13.167,13.167,0,0,0-26.335,0,3.95,3.95,0,1,0,7.9,0Z" transform="translate(-24.758 -36.726)" fill="#00366d"/>
    <path id="Caminho_1038" data-name="Caminho 1038" d="M686.742,199.658a13.182,13.182,0,0,0-13.168,13.167,3.95,3.95,0,0,0,7.9,0,5.267,5.267,0,1,1,10.534,0,3.95,3.95,0,1,0,7.9,0A13.182,13.182,0,0,0,686.742,199.658Z" transform="translate(-60.662 -36.726)" fill="#01223c"/>
    <path id="Caminho_1039" data-name="Caminho 1039" d="M685.512,264.951a3.951,3.951,0,1,0-5.588-5.588,34.921,34.921,0,0,1-24.857,10.3v7.9A42.785,42.785,0,0,0,685.512,264.951Z" transform="translate(-52.685 -61.96)" fill="#01223c"/>
    <path id="Caminho_1040" data-name="Caminho 1040" d="M606.273,259.353a3.952,3.952,0,0,0-5.588,5.588,42.747,42.747,0,0,0,30.443,12.615h0v-7.9h0A34.884,34.884,0,0,1,606.273,259.353Z" transform="translate(-28.748 -61.956)" fill="#00366d"/>
  </g>
</svg>
