<svg xmlns="http://www.w3.org/2000/svg" width="111.664" height="92.411" viewBox="0 0 111.664 92.411">
  <g id="ico_pagamento" data-name="ico pagamento" transform="translate(0.001 -0.602)">
    <path id="Caminho_1103" data-name="Caminho 1103" d="M468.787,81.96l-20.14-20.178v80.86H475.6v-44.3A23.106,23.106,0,0,0,468.787,81.96Z" transform="translate(-363.937 -49.628)" fill="#ffb782"/>
    <path id="Caminho_1104" data-name="Caminho 1104" d="M15.741,78.286.516,38.761a7.7,7.7,0,0,1,4.419-9.953L76.8,1.126A7.7,7.7,0,0,1,86.75,5.545L101.976,45.07a7.7,7.7,0,0,1-4.419,9.954L25.7,82.7A7.7,7.7,0,0,1,15.741,78.286Z" transform="translate(0 -0.006)" fill="#de4c3c"/>
    <path id="Caminho_1105" data-name="Caminho 1105" d="M118.327,102.159l-86.165,33.4L37.9,150.452l86.169-33.384Z" transform="translate(-26.09 -82.382)" fill="#7a4930"/>
    <path id="Caminho_1106" data-name="Caminho 1106" d="M0,50.658V8.3A7.7,7.7,0,0,1,7.7.6H84.714a7.7,7.7,0,0,1,7.7,7.7V50.658a7.7,7.7,0,0,1-7.7,7.7H7.7A7.7,7.7,0,0,1,0,50.658Z" transform="translate(-0.004)" fill="#4398d1"/>
    <path id="Caminho_1107" data-name="Caminho 1107" d="M165.357.6h-8.182L99.418,58.359h65.939a7.7,7.7,0,0,0,7.7-7.7V8.3A7.7,7.7,0,0,0,165.357.6Z" transform="translate(-80.647)" fill="#3e8cc7"/>
    <path id="Caminho_1108" data-name="Caminho 1108" d="M40.79,163.744h7.7v3.85h-7.7Z" transform="translate(-33.089 -132.338)" fill="#5eb3d1"/>
    <path id="Caminho_1109" data-name="Caminho 1109" d="M40.79,224.924h7.7v3.85h-7.7Z" transform="translate(-33.089 -181.967)" fill="#5eb3d1"/>
    <path id="Caminho_1110" data-name="Caminho 1110" d="M224.325,224.924h7.7v3.85h-7.7Z" transform="translate(-181.97 -181.967)" fill="#5eb3d1"/>
    <path id="Caminho_1111" data-name="Caminho 1111" d="M101.97,163.744h7.7v3.85h-7.7Z" transform="translate(-82.717 -132.338)" fill="#5eb3d1"/>
    <path id="Caminho_1112" data-name="Caminho 1112" d="M163.146,163.744h7.7v3.85h-7.7Z" transform="translate(-132.342 -132.338)" fill="#5eb3d1"/>
    <path id="Caminho_1113" data-name="Caminho 1113" d="M224.325,163.744h7.7v3.85h-7.7Z" transform="translate(-181.97 -132.338)" fill="#5eb3d1"/>
    <path id="Caminho_1114" data-name="Caminho 1114" d="M418.057,41.389h3.85v5.776h-3.85Z" transform="translate(-339.122 -33.086)" fill="#5eb3d1"/>
    <path id="Caminho_1115" data-name="Caminho 1115" d="M377.271,41.389h3.85v5.776h-3.85Z" transform="translate(-306.037 -33.086)" fill="#5eb3d1"/>
    <path id="Caminho_1116" data-name="Caminho 1116" d="M336.484,41.389h3.85v5.776h-3.85Z" transform="translate(-272.952 -33.086)" fill="#5eb3d1"/>
    <path id="Caminho_1117" data-name="Caminho 1117" d="M295.7,41.389h3.85v5.776H295.7Z" transform="translate(-239.87 -33.086)" fill="#5eb3d1"/>
    <path id="Caminho_1119" data-name="Caminho 1119" d="M316.769,174.344a8.346,8.346,0,0,0-12.052,11.542L320.494,203.1a25.965,25.965,0,0,0,.525,26.639l1.4,2.239h25.028V205.022Z" transform="translate(-245.41 -138.962)" fill="#ffb782"/>
    <path id="Caminho_1121" data-name="Caminho 1121" d="M40.79,53.71V44.47a3.08,3.08,0,0,1,3.081-3.081h9.241a3.079,3.079,0,0,1,3.08,3.081V53.71a3.079,3.079,0,0,1-3.08,3.081H43.871A3.08,3.08,0,0,1,40.79,53.71Z" transform="translate(-33.089 -33.086)" fill="#fdb62f"/>
    <path id="Caminho_1122" data-name="Caminho 1122" d="M40.79,71.978h5.776v3.851H40.79Z" transform="translate(-33.089 -57.899)" fill="#fd7b2f"/>
    <path id="Caminho_1123" data-name="Caminho 1123" d="M91.773,71.978h5.775v3.851H91.773Z" transform="translate(-74.446 -57.899)" fill="#fd7b2f"/>
    <path id="Caminho_1124" data-name="Caminho 1124" d="M488.962,297.757a1.922,1.922,0,0,1-1.361-.564l-7.7-7.7a1.925,1.925,0,0,1,2.723-2.722l7.7,7.7a1.926,1.926,0,0,1-1.362,3.287Z" transform="translate(-388.85 -231.697)" fill="#f2a46f"/>
  </g>
</svg>
