<svg xmlns="http://www.w3.org/2000/svg" width="89.664" height="100.015" viewBox="0 0 89.664 100.015">
  <g id="men" transform="translate(-26.482 -275.68)">
    <path id="Caminho_1057" data-name="Caminho 1057" d="M126.783,426.288v-12.07H95.746v12.07l15.518,13.794Z" transform="translate(-39.95 -79.907)" fill="#e6af78"/>
    <path id="Caminho_1058" data-name="Caminho 1058" d="M110.829,448.079l-21.336-5.02a3.411,3.411,0,0,1-.9-.361l-17.282,10.08L54.707,442.21a3.43,3.43,0,0,1-1.57.848L31.8,448.078a6.9,6.9,0,0,0-5.318,6.714v13.5a3.449,3.449,0,0,0,3.449,3.449H112.7a3.449,3.449,0,0,0,3.449-3.449v-13.5A6.9,6.9,0,0,0,110.829,448.079Z" transform="translate(-0.001 -96.052)" fill="#eff2fa"/>
    <path id="Caminho_1059" data-name="Caminho 1059" d="M95.746,414.218v12.735c19.55,7.043,31.037-10.585,31.037-10.585v-2.15Z" transform="translate(-39.95 -79.907)" fill="#d29b6e"/>
    <path id="Caminho_1060" data-name="Caminho 1060" d="M79.449,320.508l1.5,33.057a10.347,10.347,0,0,0,4.128,7.807l7.129,5.347a10.345,10.345,0,0,0,6.207,2.069h6.9a10.347,10.347,0,0,0,6.207-2.069l7.129-5.347a10.346,10.346,0,0,0,4.128-7.807l1.5-33.057H79.449Z" transform="translate(-30.551 -25.856)" fill="#f0c087"/>
    <path id="Caminho_1061" data-name="Caminho 1061" d="M96.692,327.407c6.9,0,17.243-1.724,19.7-6.9H79.449l1.5,33.057a10.347,10.347,0,0,0,4.128,7.807l7.129,5.347a10.345,10.345,0,0,0,6.207,2.069h3.449c-3.449,0-10.346-6.9-10.346-15.519V332.58C91.519,330.855,93.243,327.407,96.692,327.407Z" transform="translate(-30.551 -25.858)" fill="#e6af78"/>
    <g id="Grupo_714" data-name="Grupo 714" transform="translate(26.482 354.466)">
      <path id="Caminho_1062" data-name="Caminho 1062" d="M204.537,471.879l11.173-10.037a6.887,6.887,0,0,1,1.485,4.274v13.5a3.449,3.449,0,0,1-3.449,3.449h-12.07v-4.777A8.621,8.621,0,0,1,204.537,471.879Z" transform="translate(-127.532 -461.842)" fill="#e4eaf6"/>
      <path id="Caminho_1063" data-name="Caminho 1063" d="M39.141,471.879,27.967,461.842a6.887,6.887,0,0,0-1.485,4.274v13.5a3.449,3.449,0,0,0,3.449,3.449H42v-4.777A8.618,8.618,0,0,0,39.141,471.879Z" transform="translate(-26.482 -461.842)" fill="#e4eaf6"/>
    </g>
    <path id="Caminho_1064" data-name="Caminho 1064" d="M130.85,490.85h-8.622l1.078-15.519h6.466Z" transform="translate(-55.225 -115.156)" fill="#5b5d6e"/>
    <path id="Caminho_1065" data-name="Caminho 1065" d="M130.85,467.182h-8.622v1a4.176,4.176,0,0,0,4.177,4.177h.267a4.176,4.176,0,0,0,4.177-4.177v-1Z" transform="translate(-55.225 -110.456)" fill="#515262"/>
    <g id="Grupo_715" data-name="Grupo 715" transform="translate(50.623 342.099)">
      <path id="Caminho_1066" data-name="Caminho 1066" d="M88.454,433.062l15.761,14.184a59.477,59.477,0,0,0-9.861,6.719,2.212,2.212,0,0,1-3.426-.775l-7.4-16.29,2.342-3.514A1.725,1.725,0,0,1,88.454,433.062Z" transform="translate(-83.523 -432.62)" fill="#e4eaf6"/>
      <path id="Caminho_1067" data-name="Caminho 1067" d="M148.176,433.062l-15.761,14.184a59.476,59.476,0,0,1,9.861,6.719,2.212,2.212,0,0,0,3.426-.775l7.4-16.29-2.342-3.514A1.725,1.725,0,0,0,148.176,433.062Z" transform="translate(-111.723 -432.62)" fill="#e4eaf6"/>
    </g>
    <path id="Caminho_1068" data-name="Caminho 1068" d="M157.115,292.057l1.617,11.424c7.379,1.476,8.442,13.056,8.6,16.364a3.4,3.4,0,0,0,.545,1.685l2.816,4.367s-.964-7.221,3.449-12.07C174.136,313.826,175.651,285.16,157.115,292.057Z" transform="translate(-75.347 -8.829)" fill="#785550"/>
    <path id="Caminho_1069" data-name="Caminho 1069" d="M183.679,365.686l-1.947,7.789a2.073,2.073,0,0,1-2.012,1.57h0a2.073,2.073,0,0,1-2.057-1.816l-1-7.967a3.569,3.569,0,0,1,3.542-4.012h.007A3.57,3.57,0,0,1,183.679,365.686Z" transform="translate(-86.608 -49.356)" fill="#f0c087"/>
    <path id="Caminho_1070" data-name="Caminho 1070" d="M73.834,280.14l2.551,1.742C64.854,290.4,67.009,305,67.009,305c3.449,3.449,3.449,12.07,3.449,12.07l3.449-3.449s-1.331-9.962,5.173-13.794c6.035-3.556,11.316-1.724,16.7-1.724,14.441,0,18.482-5.443,17.782-12.07-.362-3.43-5.606-10.573-18.967-10.346C89.2,275.776,79.079,277.409,73.834,280.14Z" transform="translate(-23.283)" fill="#694b4b"/>
    <path id="Caminho_1071" data-name="Caminho 1071" d="M72.828,305.044a18.942,18.942,0,0,1,3.556-14.711c-11.531,8.514-9.376,23.116-9.376,23.116,3.449,3.449,3.449,12.07,3.449,12.07l3.449-3.449s-1.331-9.962,5.173-13.794c6.035-3.556,11.316-1.724,16.7-1.724a42.353,42.353,0,0,0,6.218-.427C90.879,306.5,84.323,298.075,72.828,305.044Z" transform="translate(-23.283 -8.452)" fill="#5a4146"/>
    <path id="Caminho_1072" data-name="Caminho 1072" d="M71.408,365.686l1.947,7.789a2.073,2.073,0,0,0,2.012,1.57h0a2.073,2.073,0,0,0,2.057-1.816l1-7.967a3.569,3.569,0,0,0-3.542-4.012h-.007A3.57,3.57,0,0,0,71.408,365.686Z" transform="translate(-25.85 -49.356)" fill="#e6af78"/>
    <path id="Caminho_1073" data-name="Caminho 1073" d="M164.856,503.851h-8.622a3.449,3.449,0,0,0-3.449,3.449H168.3A3.448,3.448,0,0,0,164.856,503.851Z" transform="translate(-72.85 -131.606)" fill="#e4eaf6"/>
  </g>
</svg>
