<svg xmlns="http://www.w3.org/2000/svg" width="120" height="120" viewBox="0 0 120 120">
  <g id="Grupo_723" data-name="Grupo 723" transform="translate(-868.293 -339.951)">
    <path id="Caminho_1150" data-name="Caminho 1150" d="M886,357.656a59.483,59.483,0,0,0,0,84.685c23.233,23.232,61.456,23.607,84.689,0a60.159,60.159,0,0,0,0-84.685A59.49,59.49,0,0,0,886,357.656Z" transform="translate(0 0)" fill="#dcdcdc"/>
    <path id="Caminho_1151" data-name="Caminho 1151" d="M969.614,358.171a59.255,59.255,0,0,1,9.4,32.338,60.34,60.34,0,0,1-60.163,60.163,59.253,59.253,0,0,1-32.337-9.4,60.182,60.182,0,1,0,83.1-83.1Z" transform="translate(-9.146 -9.146)" fill="#dcdcdc"/>
    <path id="Caminho_1152" data-name="Caminho 1152" d="M988.6,447.622c0,4.313-3.889,7.907-8.556,7.907H932.6c-4.667,0-8.556-3.594-8.556-7.907s3.889-7.907,8.556-7.907h47.06C984.711,439.715,988.6,443.309,988.6,447.622Z" transform="translate(-27.981 -47.624)" fill="#070707"/>
    <g id="Grupo_722" data-name="Grupo 722" transform="translate(888.765 359.664)">
      <path id="Caminho_1153" data-name="Caminho 1153" d="M924.981,395.2c-5.751,5.751-13.3,7.907-16.173,4.672-3.235-3.235-1.078-10.423,4.672-16.173s13.3-7.907,16.533-4.672C932.888,381.9,930.732,389.445,924.981,395.2Z" transform="translate(-907.3 -377.514)" fill="#dcdcdc"/>
    </g>
    <path id="Caminho_1154" data-name="Caminho 1154" d="M975.965,460.257c-4.313,0-7.907-3.889-7.907-8.556V404.252c0-4.667,3.594-8.556,7.907-8.556s7.907,3.889,7.907,8.556v47.059C983.872,456.368,980.278,460.257,975.965,460.257Z" transform="translate(-47.625 -27.981)" fill="#070707"/>
  </g>
</svg>
