<svg xmlns="http://www.w3.org/2000/svg" width="90.453" height="120.605" viewBox="0 0 90.453 120.605">
  <g id="Grupo_746" data-name="Grupo 746" transform="translate(-1187.92 -39.111)">
    <path id="Caminho_1159" data-name="Caminho 1159" d="M1276.722,57.955h-7.538V46.649h-15.075V57.955h-7.538V39.111h30.151Z" transform="translate(-28.5)" fill="#62808c"/>
    <path id="Caminho_1160" data-name="Caminho 1160" d="M1266.653,188.216h-52.764a11.307,11.307,0,0,1-11.307-11.307V97.763h75.378V176.91A11.307,11.307,0,0,1,1266.653,188.216Z" transform="translate(-7.125 -28.5)" fill="#e23333"/>
    <path id="Caminho_1161" data-name="Caminho 1161" d="M1278.373,91.05H1187.92V75.975a7.538,7.538,0,0,1,7.537-7.538h75.378a7.538,7.538,0,0,1,7.538,7.538Z" transform="translate(0 -14.25)" fill="#77959e"/>
    <path id="Caminho_1162" data-name="Caminho 1162" d="M1277.512,157.2a3.769,3.769,0,0,0-5.329,0l-9.746,9.746-9.746-9.746a3.768,3.768,0,0,0-5.329,5.329l9.746,9.746-9.746,9.746a3.768,3.768,0,0,0,5.329,5.329l9.746-9.746,9.746,9.746a3.768,3.768,0,0,0,5.329-5.329l-9.746-9.746,9.746-9.746A3.769,3.769,0,0,0,1277.512,157.2Z" transform="translate(-28.347 -56.848)" fill="#fff"/>
  </g>
</svg>
