<svg xmlns="http://www.w3.org/2000/svg" width="140.745" height="140.745" viewBox="0 0 140.745 140.745">
  <g id="frete" transform="translate(0 0)">
    <path id="Caminho_43585" data-name="Caminho 43585" d="M84.854,70.373A70.092,70.092,0,0,0,68.267,24.99a2.209,2.209,0,0,1,.068-2.944,70.373,70.373,0,1,1,99.8,99.182H91.919a48.882,48.882,0,0,1-8.294-37.691,70.764,70.764,0,0,0,1.229-13.164Z" transform="translate(-49.118 0)" fill="#9773bd"/>
    <path id="Caminho_43586" data-name="Caminho 43586" d="M181,32.37V62.608a1.375,1.375,0,0,1-1.374,1.374h-5.5V75.666a2.062,2.062,0,0,1-4.123,0v-53.6a2.062,2.062,0,1,1,4.123,0V31h5.5A1.375,1.375,0,0,1,181,32.37Zm77.9,26.115h-2.307a1.375,1.375,0,0,0-1.374,1.374v6.872h-5.5V48.864a1.375,1.375,0,0,0-1.374-1.374h-5.5a1.375,1.375,0,0,0-1.374,1.374v4.123h-8.247V40.617a1.375,1.375,0,0,0-1.374-1.374h-5.5V27.56a2.062,2.062,0,1,0-4.123,0V39.243h-5.5V24.123a1.375,1.375,0,0,0-1.374-1.374h-8.247a1.375,1.375,0,0,0-1.374,1.374V52.987h-1.374a1.375,1.375,0,0,0-1.374,1.374V92.847a1.375,1.375,0,0,0,1.374,1.374h26.115v12.37a1.375,1.375,0,0,0,1.374,1.374h28.287a70.67,70.67,0,0,0-1.24-49.481ZM196.115,31h-8.247a1.375,1.375,0,0,0-1.374,1.374V62.608a1.375,1.375,0,0,0,1.374,1.374h8.247a1.375,1.375,0,0,0,1.374-1.374V32.37A1.375,1.375,0,0,0,196.115,31Z" transform="translate(-123.268 -14.502)" fill="#754ca0"/>
    <path id="Caminho_43587" data-name="Caminho 43587" d="M123.7,167.966H19.813a13.5,13.5,0,0,1-11.986-7.3A70.423,70.423,0,0,1,19.269,80H59.508A32.987,32.987,0,0,1,84.052,90.948l23.157,25.789,16.493,10Z" transform="translate(0 -58.008)" fill="#ffcd71"/>
    <path id="Caminho_43588" data-name="Caminho 43588" d="M179.479,167.966h-74.5a43.983,43.983,0,0,1,0-87.966h15.8a32.986,32.986,0,0,1,24.544,10.948l15.444,17.2a77.9,77.9,0,0,0,17.585,14.572,13.745,13.745,0,0,1,6.621,11.754v27.994a5.5,5.5,0,0,1-5.5,5.5Z" transform="translate(-44.232 -58.008)" fill="#fff68e"/>
    <path id="Caminho_43589" data-name="Caminho 43589" d="M255.5,269.481H250V220h5.5Zm54.979-27.214a3.024,3.024,0,0,0,3.024,3.024h8.522v-6.048H313.5A3.024,3.024,0,0,0,310.477,242.266Zm11.546,11.82H313.5a3.024,3.024,0,1,1,0-6.048h8.522Z" transform="translate(-181.277 -159.523)" fill="#ffcd71"/>
    <path id="Caminho_43590" data-name="Caminho 43590" d="M270.167,137.97a7.93,7.93,0,0,1-5.868,13.264H227.93A7.93,7.93,0,0,1,220,143.3V117.93a7.93,7.93,0,0,1,7.93-7.93h9.514a16.493,16.493,0,0,1,12.2,5.4Z" transform="translate(-159.523 -79.761)" fill="#60c8dd"/>
    <path id="Caminho_43591" data-name="Caminho 43591" d="M318.44,138.029a7.931,7.931,0,0,1-4.568,13.158,70.23,70.23,0,0,1-27.3-41.106,16.494,16.494,0,0,1,11.348,5.377Z" transform="translate(-207.796 -79.821)" fill="#7cd2e3"/>
    <path id="Caminho_43592" data-name="Caminho 43592" d="M236.177,151.234H227.93A7.93,7.93,0,0,1,220,143.3V117.93a7.93,7.93,0,0,1,7.93-7.93h8.247a7.93,7.93,0,0,0-7.93,7.93V143.3a7.93,7.93,0,0,0,7.93,7.93Z" transform="translate(-159.523 -79.761)" fill="#2cb3cd"/>
    <path id="Caminho_43593" data-name="Caminho 43593" d="M150.659,334.74H101.178a24.74,24.74,0,0,1,49.481,0ZM48.948,310A24.749,24.749,0,0,0,25.8,325.982a70.291,70.291,0,0,0,5.087,8.759h42.8A24.74,24.74,0,0,0,48.948,310Z" transform="translate(-18.71 -224.783)" fill="#ffb655"/>
    <path id="Caminho_43594" data-name="Caminho 43594" d="M467.043,243.243v3.162H458.2a8.2,8.2,0,0,1-.131-16.4q1.162.762,2.353,1.484a13.744,13.744,0,0,1,6.621,11.754Z" transform="translate(-326.298 -166.778)" fill="#fffac1"/>
    <path id="Caminho_43595" data-name="Caminho 43595" d="M49.481,197.926a2.062,2.062,0,0,1-2.062,2.062H7.039l6.2,6.2a2.062,2.062,0,0,1-2.916,2.916L.6,199.384a2.062,2.062,0,0,1,0-2.916l9.719-9.719a2.062,2.062,0,0,1,2.916,2.916l-6.2,6.2h40.38A2.062,2.062,0,0,1,49.481,197.926Z" transform="translate(0 -134.975)" fill="#f44545"/>
    <path id="Caminho_43596" data-name="Caminho 43596" d="M48.877,118.739l-9.719,9.719a2.062,2.062,0,0,1-2.916-2.916l6.2-6.2H2.062a2.062,2.062,0,0,1,0-4.123h40.38l-6.2-6.2a2.062,2.062,0,0,1,2.916-2.916l9.719,9.719a2.062,2.062,0,0,1,0,2.916Z" transform="translate(0 -76.498)" fill="#533672"/>
    <path id="Caminho_43597" data-name="Caminho 43597" d="M280.374,430a70.179,70.179,0,0,1-47.77,22.438c-1.274.069-23.647-22.438-9.513-22.438Z" transform="translate(-158.382 -311.796)" fill="#b9c3cd"/>
    <path id="Caminho_43598" data-name="Caminho 43598" d="M155.647,349.242A19.243,19.243,0,1,1,136.4,330,19.242,19.242,0,0,1,155.647,349.242Zm-95.44-19.227A19.245,19.245,0,0,0,40.265,347.56a70.73,70.73,0,0,0,10.992,13.267c10.3,9.73,27.479,2.5,27.421-11.665q0-.308-.012-.618A19.308,19.308,0,0,0,60.208,330.015Z" transform="translate(-29.196 -239.285)" fill="#4e5a61"/>
    <path id="Caminho_43599" data-name="Caminho 43599" d="M376.494,378.247A8.247,8.247,0,1,1,368.247,370,8.247,8.247,0,0,1,376.494,378.247Z" transform="translate(-261.038 -268.289)" fill="#b9c3cd"/>
    <path id="Caminho_43600" data-name="Caminho 43600" d="M132.23,374.123v34.808q-1.911.1-3.849.1A70.044,70.044,0,0,1,89.754,397.5,21.648,21.648,0,0,1,80,379.412v-5.288A4.123,4.123,0,0,1,84.123,370h43.983A4.123,4.123,0,0,1,132.23,374.123Z" transform="translate(-58.009 -268.289)" fill="#ffc14f"/>
    <path id="Caminho_43601" data-name="Caminho 43601" d="M88.247,382.024a4.086,4.086,0,0,1-6.818,3.036l-.079-.071A4.082,4.082,0,0,1,80,381.953v-7.83A4.123,4.123,0,0,1,84.123,370H92.37a4.123,4.123,0,0,0-4.123,4.123Z" transform="translate(-58.009 -268.289)" fill="#ff9f22"/>
    <path id="Caminho_43602" data-name="Caminho 43602" d="M132.051,402.611v14.02a2.611,2.611,0,0,1-2.611,2.611H106.06q-.75-.493-1.486-1.005a4.825,4.825,0,0,1-2.074-3.961V401.764A1.764,1.764,0,0,1,104.264,400H129.44A2.611,2.611,0,0,1,132.051,402.611Z" transform="translate(-74.323 -290.042)" fill="#fff5f5"/>
    <path id="Caminho_43603" data-name="Caminho 43603" d="M88.247,418.229A70.7,70.7,0,0,1,80,411.519V400h8.247Z" transform="translate(-58.009 -290.042)" fill="#dce6eb"/>
    <path id="Caminho_43604" data-name="Caminho 43604" d="M116,422.062v4.123a2.062,2.062,0,1,1-4.123,0v-4.123a2.062,2.062,0,0,1,4.123,0ZM107.062,420A2.062,2.062,0,0,0,105,422.062v4.123a2.062,2.062,0,1,0,4.123,0v-4.123A2.062,2.062,0,0,0,107.062,420Zm16.494,0a2.062,2.062,0,0,0-2.062,2.062v4.123a2.062,2.062,0,1,0,4.123,0v-4.123A2.062,2.062,0,0,0,123.555,420Z" transform="translate(-76.136 -304.545)" fill="#c8d2dc"/>
    <path id="Caminho_43605" data-name="Caminho 43605" d="M219.243,419.242H200V400h19.243a2.749,2.749,0,0,1,2.749,2.749v13.745A2.749,2.749,0,0,1,219.243,419.242Z" transform="translate(-145.021 -290.042)" fill="#fff04a"/>
    <path id="Caminho_43606" data-name="Caminho 43606" d="M223.283,416.513l5.6,8.278a1.073,1.073,0,0,1-.889,1.674H216.8a1.073,1.073,0,0,1-.889-1.674l5.6-8.278a1.073,1.073,0,0,1,1.777,0Z" transform="translate(-156.42 -301.674)" fill="#dd7d00"/>
  </g>
</svg>
