<svg xmlns="http://www.w3.org/2000/svg" width="735.554" height="177.54" viewBox="0 0 735.554 177.54">
  <g id="logo_1" data-name="logo 1" transform="translate(-306.467 -326.4)">
    <path id="Caminho_122" data-name="Caminho 122" d="M451.112,461.5a.555.555,0,0,0-.821.054c-8.155,9.178-19.949,17.258-33.607,23.221-36.073,15.75-77.806,3.221-91.077-33.18-16.133-44.245,5.031-89.934,44.76-107.281,42.446-18.532,80.315,6.37,90.157,32.4,10.318,27.28-2.836,61.517-23.264,46.006-10.187-7.736-9.916-34.767-36.338-37.492a34.054,34.054,0,0,1-7.6-1.325,27.542,27.542,0,0,1-10.153-6.644,41.558,41.558,0,0,1-9.035-14.779.574.574,0,0,0-1.089.182l-5.518,30.107a.612.612,0,0,1-.1.237l-23.842,35.013a.55.55,0,0,0,.068.727l8.043,6.966a.588.588,0,0,0,.869-.177l23.258-37.752a.58.58,0,0,0,.08-.205l1.97-10.181a.581.581,0,0,1,1.032-.282,22.652,22.652,0,0,0,7.2,6.558c2.5,1.7,8.89,3.093,9.993,3.261,19.037,2.9,18.718,24.569,29.312,34.742a28.2,28.2,0,0,0,5.41,4.814l.017.009c.459.248,1.6.718,1.7.752a.781.781,0,0,1,.123.04c26.75,13.784,59.55-14.04,41.372-65.886-12.829-36.592-62.956-56.481-105.368-37.965-54.112,23.626-72.844,80.634-56.472,125.534,15.257,41.847,65.653,54.893,105.628,37.441,16.147-7.052,28.816-15.3,39.829-27.248a.577.577,0,0,0,.026-.784Z" transform="translate(0 0)" fill="#fff"/>
    <path id="Caminho_123" data-name="Caminho 123" d="M456.253,396.575h85.838a6.162,6.162,0,0,0,5.706-4.529l13.339-49.674.171-1.26a3.15,3.15,0,0,0-.924-2.391,3.5,3.5,0,0,0-2.519-.881H544.358a6.355,6.355,0,0,0-5.792,4.532l-11.5,42.962a3.05,3.05,0,0,1-1.089,1.593,2.793,2.793,0,0,1-1.762.673H479.075a1.757,1.757,0,0,1-1.3-.462,1.648,1.648,0,0,1-.462-1.217,1.477,1.477,0,0,1,.083-.587l11.5-42.962.165-1.26a3.148,3.148,0,0,0-.921-2.391,3.5,3.5,0,0,0-2.517-.881h-13.6a5.75,5.75,0,0,0-3.566,1.343,6.047,6.047,0,0,0-2.223,3.189l-13.257,49.589-.168,1.26a3.214,3.214,0,0,0,.966,2.434A3.426,3.426,0,0,0,456.253,396.575Z" transform="translate(270.777 21.167)" fill="#fff"/>
    <path id="Caminho_124" data-name="Caminho 124" d="M489.724,392.551l-.083.838.254,1.26.165.333.254.419.333.336.673.5.5.165.755.168H578.92a4.613,4.613,0,0,0,2.685-.752l.5-.254.756-.587.336-.333.333-.422.336-.336.254-.419.419-.838,3.774-14.1a14.036,14.036,0,0,0,.419-2.936,8.576,8.576,0,0,0-1.93-5.624,7.66,7.66,0,0,0-5.119-2.767,14.945,14.945,0,0,0,7.89-3.734,14.468,14.468,0,0,0,4.7-7.342l3.694-13.678.083-.752.085-.5v-.841l-.168-.334-.168-.419-.5-.673-.251-.251a3.181,3.181,0,0,0-2.352-.841H508.855l-.5.086h-.5l-.924.333-.336.171-.5.165-.419.336-.419.251-.673.673-.921,1.174-.339.838-.251.5-13.342,49.674Zm31.048-31.718,3.1-11.663a3,3,0,0,1,1.131-1.6,2.955,2.955,0,0,1,1.8-.67h45.145a1.582,1.582,0,0,1,1.679,1.676,1.936,1.936,0,0,1-.085.59L570.529,360.5l-.336.838-.92.923-.5.168-.336.168-.5.083H522.533l-.587-.083-.333-.085-.339-.251-.419-.587-.083-.419Zm-6.544,24.5L517.246,374l.254-.755.755-.752.755-.5.419-.168.419-.083h45.4l.67.083.336.168.336.251.165.254.254.67v.336l-.085.419L563.9,385.334a3.05,3.05,0,0,1-1.089,1.593,2.793,2.793,0,0,1-1.761.673H515.9a1.758,1.758,0,0,1-1.3-.462,1.648,1.648,0,0,1-.462-1.217A1.416,1.416,0,0,1,514.227,385.334Z" transform="translate(338.919 21.167)" fill="#fff"/>
    <path id="Caminho_125" data-name="Caminho 125" d="M434.856,372.661a7.252,7.252,0,0,0-2.594-3.831,8.312,8.312,0,0,0-4.523-1.659l-43.35-.046-.544.046a4.15,4.15,0,0,0-1.83.966,3.373,3.373,0,0,0-1.038,1.656l-7.81,29.264-.1.69a1.949,1.949,0,0,0,.4,1.211,2.045,2.045,0,0,0,1.089.718l.542.049h43.549a13.185,13.185,0,0,0,5.364-1.756,16.138,16.138,0,0,0,4.572-3.879A12.873,12.873,0,0,0,431.2,391.1l3.56-13.3a12.651,12.651,0,0,0,.393-2.768A9.653,9.653,0,0,0,434.856,372.661ZM422.548,373.8l-5.735,21.3a1.8,1.8,0,0,1-.641.941,1.646,1.646,0,0,1-1.038.393h-26.6a1.025,1.025,0,0,1-.764-.271.969.969,0,0,1-.274-.715.827.827,0,0,1,.051-.348l5.732-21.3a1.8,1.8,0,0,1,.644-.941,1.641,1.641,0,0,1,1.038-.393h26.593a1.037,1.037,0,0,1,.767.271.974.974,0,0,1,.271.715A.837.837,0,0,1,422.548,373.8Z" transform="translate(123.229 75.354)" fill="#fff"/>
    <path id="Caminho_126" data-name="Caminho 126" d="M457.175,367.193l-51.059-.051-.593.051a4.094,4.094,0,0,0-1.779.963,3.371,3.371,0,0,0-1.04,1.656l-7.858,29.264-.1.593a2.047,2.047,0,0,0,.4,1.237,2.225,2.225,0,0,0,1.086.79l.6.048H447.39l.544-.048a3.6,3.6,0,0,0,1.779-.938,3.52,3.52,0,0,0,1.037-1.682l7.858-29.264.1-.693a1.97,1.97,0,0,0-.419-1.234A1.867,1.867,0,0,0,457.175,367.193Zm-12.949,6.624-5.686,21.3a1.782,1.782,0,0,1-.641.941,1.634,1.634,0,0,1-1.037.4H410.268a1.029,1.029,0,0,1-.767-.274.96.96,0,0,1-.274-.715.836.836,0,0,1,.051-.348l5.683-21.3a1.76,1.76,0,0,1,.667-.938,1.737,1.737,0,0,1,1.063-.4h26.593a.931.931,0,0,1,.989.989A1.142,1.142,0,0,1,444.226,373.817Z" transform="translate(163.339 75.383)" fill="#fff"/>
    <path id="Caminho_127" data-name="Caminho 127" d="M510.477,367.142H459.911a3.74,3.74,0,0,0-3.412,2.671l-7.858,29.264-.1.593a2.055,2.055,0,0,0,.57,1.482,1.988,1.988,0,0,0,1.508.593h8.007a3.376,3.376,0,0,0,2.1-.79,3.292,3.292,0,0,0,1.26-1.878L464.9,388.2l.145-.248.151-.2.2-.2.493-.3.248-.1.248-.051h26.741a1.013,1.013,0,0,1,1.038,1.038l-.048.248-2.868,10.677-.1.593a2.055,2.055,0,0,0,.57,1.482,1.984,1.984,0,0,0,1.508.593h7.958a3.629,3.629,0,0,0,3.361-2.668l7.858-29.212.1-.744a1.938,1.938,0,0,0-.544-1.434A2.013,2.013,0,0,0,510.477,367.142Zm-12.456,6.675-1.781,6.672-.1.248-.1.2-.148.2-.2.2a.515.515,0,0,1-.5.3l-.2.1a.534.534,0,0,1-.3.048H467.92a.972.972,0,0,1-.718-.271.905.905,0,0,1-.271-.667,1.075,1.075,0,0,1,.048-.348l1.778-6.672a1.794,1.794,0,0,1,.644-.938,1.629,1.629,0,0,1,1.038-.4h26.641a.931.931,0,0,1,.989.989A1.146,1.146,0,0,1,498.022,373.817Z" transform="translate(262.873 75.383)" fill="#fff"/>
    <path id="Caminho_128" data-name="Caminho 128" d="M528.867,369.912a3.425,3.425,0,0,0,.148-.841,1.722,1.722,0,0,0-.889-1.63,3.945,3.945,0,0,0-1.137-.248l-8.8-.051a3.807,3.807,0,0,0-1.779.544l-.593.445-.2.2-.245.3L495.8,393.986a1.941,1.941,0,0,1-1.482.838.879.879,0,0,1-.989-.738L487.3,368.627l-.2-.5-.148-.245-.2-.148a1.948,1.948,0,0,0-1.434-.6h-8.847a3.719,3.719,0,0,0-1.434.348,3.953,3.953,0,0,0-1.186.989,4.331,4.331,0,0,0-.792,1.334,2.358,2.358,0,0,0-.048.593,2.387,2.387,0,0,0,.048.6l6.823,29.261a1.743,1.743,0,0,0,.69,1.089,2.228,2.228,0,0,0,1.337.393h21.106a2.992,2.992,0,0,0,1.457-.393,5.251,5.251,0,0,0,1.311-1.037L528.374,371A4.131,4.131,0,0,0,528.867,369.912Z" transform="translate(308.149 75.383)" fill="#fff"/>
    <path id="Caminho_129" data-name="Caminho 129" d="M555.876,369.12a1.949,1.949,0,0,0-.544-1.434,2.013,2.013,0,0,0-1.482-.544H503.284a3.74,3.74,0,0,0-3.412,2.671l-7.858,29.264-.1.593a2.054,2.054,0,0,0,.57,1.482,1.983,1.983,0,0,0,1.508.593H502a3.377,3.377,0,0,0,2.1-.79,3.293,3.293,0,0,0,1.26-1.878l2.916-10.874.148-.248.151-.2.2-.2.493-.3.248-.1.248-.051H536.5a1.013,1.013,0,0,1,1.037,1.038l-.048.248-2.867,10.677-.1.593a2.055,2.055,0,0,0,.57,1.482,1.982,1.982,0,0,0,1.505.593h7.961a3.629,3.629,0,0,0,3.36-2.668l7.858-29.212Zm-14.482,4.7-1.781,6.672-.1.248-.1.2-.148.2-.2.2a.515.515,0,0,1-.5.3l-.2.1a.534.534,0,0,1-.3.048H511.29a.969.969,0,0,1-.715-.271.9.9,0,0,1-.271-.667,1.08,1.08,0,0,1,.048-.348l1.779-6.672a1.793,1.793,0,0,1,.644-.938,1.622,1.622,0,0,1,1.037-.4h26.641a.931.931,0,0,1,.989.989A1.142,1.142,0,0,1,541.394,373.817Z" transform="translate(343.124 75.383)" fill="#fff"/>
    <path id="Caminho_130" data-name="Caminho 130" d="M597.733,367.193l-51.059-.051-.593.051a4.094,4.094,0,0,0-1.779.963,3.37,3.37,0,0,0-1.04,1.656L535.4,399.076l-.1.593a2.048,2.048,0,0,0,.4,1.237,2.225,2.225,0,0,0,1.086.79l.593.048h50.569l.542-.048a3.6,3.6,0,0,0,1.781-.938,3.543,3.543,0,0,0,1.038-1.682l7.858-29.264.1-.693a1.971,1.971,0,0,0-.419-1.234A1.867,1.867,0,0,0,597.733,367.193Zm-12.949,6.624-5.686,21.3a1.783,1.783,0,0,1-.641.941,1.634,1.634,0,0,1-1.037.4H550.826a1.029,1.029,0,0,1-.767-.274.96.96,0,0,1-.274-.715.832.832,0,0,1,.051-.348l5.683-21.3a1.762,1.762,0,0,1,.667-.938,1.738,1.738,0,0,1,1.063-.4h26.593a.931.931,0,0,1,.989.989A1.148,1.148,0,0,1,584.784,373.817Z" transform="translate(423.407 75.383)" fill="#fff"/>
    <path id="Caminho_131" data-name="Caminho 131" d="M486.739,338.822a3.544,3.544,0,0,0-2.56-.923H398.342a5.728,5.728,0,0,0-3.566,1.342,5.575,5.575,0,0,0-2.138,3.19L379.3,392.1l-.168,1.177a3.254,3.254,0,0,0,.963,2.391,3.366,3.366,0,0,0,2.477.966h85.838a5.662,5.662,0,0,0,3.608-1.345,6.1,6.1,0,0,0,2.18-3.19l1.191-4.446h-70a1.758,1.758,0,0,1-1.3-.462,1.638,1.638,0,0,1-.462-1.214,1.476,1.476,0,0,1,.083-.587l9.734-36.25a3.107,3.107,0,0,1,2.853-2.18h70l1.243-4.532.168-1.26A3.11,3.11,0,0,0,486.739,338.822Z" transform="translate(134.441 21.276)" fill="#fff"/>
    <path id="Caminho_132" data-name="Caminho 132" d="M487.446,387.6H442.3a1.764,1.764,0,0,1-1.3-.462,1.648,1.648,0,0,1-.462-1.217,1.413,1.413,0,0,1,.086-.587l11.5-42.962.168-1.26a3.15,3.15,0,0,0-.923-2.391,3.5,3.5,0,0,0-2.517-.881H435.255a5.744,5.744,0,0,0-3.566,1.343,6.031,6.031,0,0,0-2.223,3.189l-13.342,49.674-.168,1.006a3.5,3.5,0,0,0,.963,2.517,3.381,3.381,0,0,0,2.56,1.006h85.838a6.162,6.162,0,0,0,5.706-4.529l1.223-4.446Z" transform="translate(202.583 21.167)" fill="#fff"/>
    <path id="Caminho_133" data-name="Caminho 133" d="M597.929,387.6H552.787a1.753,1.753,0,0,1-1.3-.462,1.648,1.648,0,0,1-.462-1.217,1.421,1.421,0,0,1,.083-.587L554.129,374a3.05,3.05,0,0,1,1.092-1.593,2.777,2.777,0,0,1,1.762-.67h18.039a2.908,2.908,0,0,0,1.764-.63,2.867,2.867,0,0,0,1.089-1.553l1.26-4.615a1.137,1.137,0,0,0,.083-.587,1.649,1.649,0,0,0-.462-1.217,1.758,1.758,0,0,0-1.3-.462H559.414a1.757,1.757,0,0,1-1.3-.462,1.53,1.53,0,0,1-.459-1.132,1.425,1.425,0,0,1,.083-.587l3.1-11.412a3.117,3.117,0,0,1,2.853-2.181H633.64l1.209-4.532.168-1.26a3.151,3.151,0,0,0-.924-2.391,3.5,3.5,0,0,0-2.517-.881H545.738a5.745,5.745,0,0,0-3.566,1.343,6.03,6.03,0,0,0-2.223,3.189l-13.342,49.674-.168,1.006a3.489,3.489,0,0,0,.966,2.517,3.372,3.372,0,0,0,2.56,1.006H615.8a6.163,6.163,0,0,0,5.7-4.529l1.223-4.446Z" transform="translate(407.005 21.167)" fill="#fff"/>
    <path id="Caminho_134" data-name="Caminho 134" d="M555.724,396.457H529.132a1.03,1.03,0,0,1-.767-.274.96.96,0,0,1-.274-.715.834.834,0,0,1,.051-.348l6.772-25.307.1-.741a1.853,1.853,0,0,0-.541-1.408,2.07,2.07,0,0,0-1.482-.522h-8.009a3.374,3.374,0,0,0-2.1.792,3.569,3.569,0,0,0-1.311,1.878l-7.858,29.264-.1.593a2.055,2.055,0,0,0,.57,1.482,1.988,1.988,0,0,0,1.508.593h50.566a3.63,3.63,0,0,0,3.361-2.668l.718-2.619Z" transform="translate(383.266 75.383)" fill="#fff"/>
    <path id="Caminho_135" data-name="Caminho 135" d="M490.24,367.721a2.1,2.1,0,0,0-1.508-.544H438.165a3.368,3.368,0,0,0-2.1.792,3.3,3.3,0,0,0-1.263,1.878l-7.858,29.261-.1.693a1.9,1.9,0,0,0,.567,1.408,1.96,1.96,0,0,0,1.457.57H479.44a3.324,3.324,0,0,0,2.124-.792,3.576,3.576,0,0,0,1.285-1.878l.7-2.617H442.315a1.026,1.026,0,0,1-.764-.274.96.96,0,0,1-.274-.715.825.825,0,0,1,.051-.348l5.732-21.354a1.688,1.688,0,0,1,.644-.915,1.713,1.713,0,0,1,1.037-.371h41.235l.73-2.668.1-.741A1.831,1.831,0,0,0,490.24,367.721Z" transform="translate(222.734 75.448)" fill="#fff"/>
    <g id="Grupo_5" data-name="Grupo 5" transform="translate(485.514 326.913)">
      <path id="Caminho_136" data-name="Caminho 136" d="M401.838,336.878a16.329,16.329,0,0,0-8.93-9,17.879,17.879,0,0,0-13.371,0,16.137,16.137,0,0,0-5.364,3.6,16.794,16.794,0,0,0-3.606,5.4,17.895,17.895,0,0,0,0,13.3,16.957,16.957,0,0,0,3.606,5.367,16.11,16.11,0,0,0,5.364,3.554,17.879,17.879,0,0,0,13.371,0,16.454,16.454,0,0,0,5.376-3.554,17.346,17.346,0,0,0,3.554-18.672Zm-1.884,12.555a14.655,14.655,0,0,1-3.138,4.774,14.864,14.864,0,0,1-21.243,0,14.486,14.486,0,0,1-3.107-4.774,16.328,16.328,0,0,1,0-11.829,14.7,14.7,0,0,1,3.107-4.783,14.942,14.942,0,0,1,21.243,0,14.876,14.876,0,0,1,3.138,4.783,16.06,16.06,0,0,1,0,11.829Z" transform="translate(-369.285 -326.58)" fill="#fff"/>
      <path id="Caminho_137" data-name="Caminho 137" d="M380.515,338.465a5.926,5.926,0,0,0,1.548-.465,3.681,3.681,0,0,0,1.229-.824,3.6,3.6,0,0,0,.858-1.3,4.749,4.749,0,0,0,.3-1.776,4.115,4.115,0,0,0-1.2-3.218,5.8,5.8,0,0,0-3.885-1.1H373.4V345.4h1.9v-6.938h3.252l4.387,6.938h2.249Zm-2.679-1.642h-2.542v-5.4h3.549a8.879,8.879,0,0,1,1.371.105,3.341,3.341,0,0,1,1.172.416,2.262,2.262,0,0,1,.847.815,2.72,2.72,0,0,1,.3,1.342,2.752,2.752,0,0,1-.4,1.556,2.506,2.506,0,0,1-1.06.818,4.852,4.852,0,0,1-1.519.285C379,336.815,378.414,336.823,377.836,336.823Z" transform="translate(-361.675 -320.654)" fill="#fff"/>
    </g>
  </g>
</svg>
