<svg xmlns="http://www.w3.org/2000/svg" width="521.521" height="538.356" viewBox="0 0 521.521 538.356">
  <g id="Shipped_vector" data-name="Shipped vector" transform="translate(-137.301 -474.982)">
    <g id="Grupo_42" data-name="Grupo 42" transform="translate(277.844 474.982)">
      <g id="Grupo_33" data-name="Grupo 33" transform="translate(74.072 24.441)">
        <g id="Grupo_32" data-name="Grupo 32">
          <path id="Caminho_83" data-name="Caminho 83" d="M464.819,646.268l-68-36.506v-70.1l68,36.506Z" transform="translate(-396.821 -510.615)" fill="#e1b37e"/>
          <path id="Caminho_84" data-name="Caminho 84" d="M479.047,647.479l62.178-34.55V546.662l-62.178,29.761Z" transform="translate(-411.049 -511.826)" fill="#bc8756"/>
          <path id="Caminho_85" data-name="Caminho 85" d="M396.821,533.588l68,36.506L527,539.373l-66.706-34.836Z" transform="translate(-396.821 -504.537)" fill="#efcc97"/>
        </g>
        <path id="Caminho_86" data-name="Caminho 86" d="M443.378,634.588l-16.7-8.976v-70.9l16.7,8.971Z" transform="translate(-401.986 -513.219)" fill="#fff" opacity="0.5"/>
        <path id="Caminho_87" data-name="Caminho 87" d="M503.124,526.709l-15.764-8.227-60.686,29.962,16.7,8.971Z" transform="translate(-401.986 -506.95)" fill="#fff" opacity="0.7"/>
      </g>
      <g id="Grupo_35" data-name="Grupo 35" transform="translate(151.037 64.546)">
        <g id="Grupo_34" data-name="Grupo 34">
          <path id="Caminho_88" data-name="Caminho 88" d="M557.888,695.713l-68-36.5V588.165l68,36.5Z" transform="translate(-489.89 -559.112)" fill="#e1b37e"/>
          <path id="Caminho_89" data-name="Caminho 89" d="M572.116,696.922l62.169-34.545V595.152l-62.169,30.726Z" transform="translate(-504.117 -560.321)" fill="#bc8756"/>
          <path id="Caminho_90" data-name="Caminho 90" d="M489.89,582.086l68,36.5,62.169-30.726-66.7-34.831Z" transform="translate(-489.89 -553.033)" fill="#efcc97"/>
        </g>
        <path id="Caminho_91" data-name="Caminho 91" d="M536.437,684.237l-16.706-8.969v-70.9l16.706,8.971Z" transform="translate(-495.053 -561.915)" fill="#fff" opacity="0.5"/>
        <path id="Caminho_92" data-name="Caminho 92" d="M596.183,575.2l-15.757-8.234-60.695,30.924,16.706,8.971Z" transform="translate(-495.053 -555.445)" fill="#fff" opacity="0.7"/>
      </g>
      <g id="Grupo_37" data-name="Grupo 37" transform="translate(0 58.047)">
        <g id="Grupo_36" data-name="Grupo 36">
          <path id="Caminho_93" data-name="Caminho 93" d="M376.9,690.35,307.25,652.959v-71.8L376.9,618.555Z" transform="translate(-307.25 -551.402)" fill="#e1b37e"/>
          <path id="Caminho_94" data-name="Caminho 94" d="M391.477,691.59l63.682-35.384v-67.88l-63.682,30.486Z" transform="translate(-321.824 -552.642)" fill="#bc8756"/>
          <path id="Caminho_95" data-name="Caminho 95" d="M307.25,574.936,376.9,612.328l63.682-31.468L372.26,545.175Z" transform="translate(-307.25 -545.175)" fill="#efcc97"/>
        </g>
        <path id="Caminho_96" data-name="Caminho 96" d="M354.937,678.39,337.824,669.2V596.571l17.113,9.192Z" transform="translate(-312.54 -554.068)" fill="#fff" opacity="0.5"/>
        <path id="Caminho_97" data-name="Caminho 97" d="M416.132,567.888l-16.144-8.431-62.164,30.692,17.113,9.192Z" transform="translate(-312.54 -547.647)" fill="#fff" opacity="0.7"/>
      </g>
      <g id="Grupo_39" data-name="Grupo 39" transform="translate(78.76 100.058)">
        <g id="Grupo_38" data-name="Grupo 38">
          <path id="Caminho_98" data-name="Caminho 98" d="M472.141,742.13l-69.652-37.394V631.961l69.652,37.394Z" transform="translate(-402.489 -602.202)" fill="#e1b37e"/>
          <path id="Caminho_99" data-name="Caminho 99" d="M486.715,743.37,550.4,707.986V639.127l-63.683,31.468Z" transform="translate(-417.063 -603.442)" fill="#bc8756"/>
          <path id="Caminho_100" data-name="Caminho 100" d="M402.489,625.734l69.652,37.394,63.683-31.468L467.5,595.976Z" transform="translate(-402.489 -595.976)" fill="#efcc97"/>
        </g>
        <path id="Caminho_101" data-name="Caminho 101" d="M450.177,730.375l-17.11-9.194V648.556l17.11,9.19Z" transform="translate(-407.78 -605.074)" fill="#fff" opacity="0.5"/>
        <path id="Caminho_102" data-name="Caminho 102" d="M511.371,618.687l-16.141-8.426L433.067,641.93l17.11,9.19Z" transform="translate(-407.78 -598.448)" fill="#fff" opacity="0.7"/>
      </g>
      <g id="Grupo_41" data-name="Grupo 41" transform="translate(78.795)">
        <g id="Grupo_40" data-name="Grupo 40">
          <path id="Caminho_103" data-name="Caminho 103" d="M472.185,621.137l-69.653-37.392V510.97l69.653,37.394Z" transform="translate(-402.532 -481.209)" fill="#e1b37e"/>
          <path id="Caminho_104" data-name="Caminho 104" d="M486.759,622.375l63.68-35.386V518.13L486.759,549.6Z" transform="translate(-417.106 -482.448)" fill="#bc8756"/>
          <path id="Caminho_105" data-name="Caminho 105" d="M402.532,504.743l69.653,37.394,63.68-31.472-68.323-35.682Z" transform="translate(-402.532 -474.982)" fill="#efcc97"/>
        </g>
        <path id="Caminho_106" data-name="Caminho 106" d="M450.216,609.382l-17.111-9.19v-72.63l17.111,9.187Z" transform="translate(-407.822 -484.08)" fill="#fff" opacity="0.5"/>
        <path id="Caminho_107" data-name="Caminho 107" d="M511.412,497.695l-16.142-8.431-62.165,31.672,17.111,9.187Z" transform="translate(-407.822 -477.453)" fill="#fff" opacity="0.7"/>
      </g>
    </g>
    <g id="Grupo_48" data-name="Grupo 48" transform="translate(137.301 639.64)">
      <g id="Grupo_47" data-name="Grupo 47">
        <path id="Caminho_108" data-name="Caminho 108" d="M233.8,1068,525.165,900.943,421.9,855.434,137.3,1012.562Z" transform="translate(-137.301 -705.471)" fill="#414042"/>
        <path id="Caminho_109" data-name="Caminho 109" d="M148.792,1049.85l-11.491,5.574v-11.154l11.491-5.582Z" transform="translate(-137.301 -737.18)" fill="#231f20"/>
        <path id="Caminho_110" data-name="Caminho 110" d="M592.423,915.954l11.492,4.687V909.484L592.423,904.8Z" transform="translate(-216.051 -714.012)" fill="#231f20"/>
        <g id="Grupo_43" data-name="Grupo 43" transform="translate(93.196)">
          <path id="Caminho_111" data-name="Caminho 111" d="M559.066,873.31,376.9,971.957V841.527L559.066,742.89Z" transform="translate(-271.956 -685.997)" fill="#c6c6c6"/>
          <path id="Caminho_112" data-name="Caminho 112" d="M559.066,831.25,376.9,929.894V885.536l182.166-98.642Z" transform="translate(-271.956 -693.611)" fill="#f8971d"/>
          <path id="Caminho_113" data-name="Caminho 113" d="M559.066,867.138,376.9,965.785V953.822l182.166-98.637Z" transform="translate(-271.956 -705.427)" fill="#f8971d"/>
          <path id="Caminho_114" data-name="Caminho 114" d="M250,923.8l104.944,56.891V850.262L250,793.371Z" transform="translate(-249.997 -694.732)" fill="#ddd"/>
          <path id="Caminho_115" data-name="Caminho 115" d="M250,772.732l104.944,56.891,182.166-98.637L432.163,674.093Z" transform="translate(-249.997 -674.093)" fill="#fafafa"/>
        </g>
        <g id="Grupo_44" data-name="Grupo 44" transform="translate(5.331 153.981)">
          <path id="Caminho_116" data-name="Caminho 116" d="M342.006,1027.131V917.956L287.854,949.33,254.1,1029.644v49.195Z" transform="translate(-162.843 -870.27)" fill="#f8971d"/>
          <path id="Caminho_117" data-name="Caminho 117" d="M276.6,939.352l-87.526-49.568,49.115-29.492,92.562,47.687Z" transform="translate(-151.591 -860.292)" fill="#fdbb30"/>
          <path id="Caminho_118" data-name="Caminho 118" d="M268.759,945.523l-33.752,80.314-91.259-49.069,37.486-80.813Z" transform="translate(-143.748 -866.463)" fill="#fbb040"/>
          <path id="Caminho_119" data-name="Caminho 119" d="M143.748,993.677l91.259,49.069v49.195L144,1039.608Z" transform="translate(-143.748 -883.372)" fill="#fba432"/>
        </g>
        <path id="Caminho_120" data-name="Caminho 120" d="M233.8,1112.046,137.3,1056.6v-11.163l96.5,55.438Z" transform="translate(-137.301 -738.348)" fill="#58595b"/>
        <path id="Caminho_121" data-name="Caminho 121" d="M205.025,1089.087l-27.379-16.195v-13.1l27.379,15.45Z" transform="translate(-144.282 -740.831)" fill="#e6e7e8"/>
        <path id="Caminho_122" data-name="Caminho 122" d="M253.99,1088.691,545.356,921.629V910.465L253.99,1077.523Z" transform="translate(-157.492 -714.993)" fill="#58595b"/>
        <path id="Caminho_123" data-name="Caminho 123" d="M261.066,948.635,236.894,1006.1l-76.335-41.37L188,907.536Z" transform="translate(-141.325 -714.486)" fill="#ade0ee"/>
        <path id="Caminho_124" data-name="Caminho 124" d="M328.968,990.12V943.375l-30.057,17.7-23.892,60.383Z" transform="translate(-161.13 -720.687)" fill="#89d4e3"/>
        <path id="Caminho_125" data-name="Caminho 125" d="M241.3,1082.624l-16.055-9.1v-14.061l16.055,9.1Z" transform="translate(-152.518 -740.774)" fill="#ffe14f"/>
        <path id="Caminho_126" data-name="Caminho 126" d="M165.16,1042.029l-16.057-9.095v-14.066l16.057,9.1Z" transform="translate(-139.343 -733.75)" fill="#ffe14f"/>
        <g id="Grupo_45" data-name="Grupo 45" transform="translate(317.671 207.482)">
          <path id="Caminho_127" data-name="Caminho 127" d="M567.29,936.74c-3.8,13.08-17.115,40.2-26.773,40.461-18.558-4.812-21.461-14.977-17.571-28.186,3.882-13.159,14.841-23.9,24.463-24.027C556.969,924.852,567.1,932.969,567.29,936.74Z" transform="translate(-521.44 -924.987)" fill="#231f20"/>
          <path id="Caminho_128" data-name="Caminho 128" d="M570.051,954.415c-3.8,13.08-14.671,23.913-24.329,24.179-9.71.253-14.439-10.267-10.552-23.471,3.88-13.157,14.841-23.9,24.463-24.03C569.2,930.956,573.845,941.387,570.051,954.415Z" transform="translate(-523.58 -926.043)" fill="#414042"/>
          <path id="Caminho_129" data-name="Caminho 129" d="M563.662,955.522c-2.031,7.238-8.038,13.8-13.53,14.366-5.711.576-8.25-5.492-5.626-13.266,2.527-7.414,8.736-13.226,13.839-13.291C563.268,943.261,565.608,948.612,563.662,955.522Z" transform="translate(-525.252 -928.161)" fill="#939598"/>
          <path id="Caminho_130" data-name="Caminho 130" d="M561.342,944.145c1.6,2.175,2.023,5.785.837,9.981-2.031,7.233-8.038,13.795-13.527,14.361a5.815,5.815,0,0,1-3.336-.608,5.412,5.412,0,0,0,5.135,2.15c5.492-.569,11.5-7.128,13.53-14.366C565.526,950.183,564.34,945.734,561.342,944.145Z" transform="translate(-525.571 -928.302)" fill="#6d6e71"/>
        </g>
        <g id="Grupo_46" data-name="Grupo 46" transform="translate(124.589 318.353)">
          <path id="Caminho_131" data-name="Caminho 131" d="M333.809,1070.823c-3.8,13.08-17.12,40.2-26.776,40.461-18.556-4.822-21.458-14.979-17.571-28.188,3.88-13.157,14.84-23.91,24.463-24.037C323.488,1058.932,333.612,1067.051,333.809,1070.823Z" transform="translate(-287.958 -1059.057)" fill="#231f20"/>
          <path id="Caminho_132" data-name="Caminho 132" d="M336.569,1088.5c-3.8,13.077-14.676,23.9-24.331,24.166-9.71.253-14.439-10.257-10.552-23.458,3.882-13.157,14.843-23.913,24.463-24.042C335.712,1065.033,340.362,1075.467,336.569,1088.5Z" transform="translate(-290.098 -1060.113)" fill="#414042"/>
          <path id="Caminho_133" data-name="Caminho 133" d="M330.178,1089.608c-2.033,7.223-8.038,13.783-13.527,14.351-5.713.591-8.25-5.49-5.629-13.254,2.529-7.414,8.736-13.236,13.839-13.3C329.784,1077.342,332.127,1082.693,330.178,1089.608Z" transform="translate(-291.77 -1062.233)" fill="#939598"/>
          <path id="Caminho_134" data-name="Caminho 134" d="M327.861,1078.22c1.6,2.185,2.021,5.78.835,9.986-2.031,7.225-8.038,13.785-13.527,14.351a5.718,5.718,0,0,1-3.334-.606,5.382,5.382,0,0,0,5.135,2.148c5.489-.569,11.494-7.128,13.527-14.351C332.043,1084.266,330.857,1079.814,327.861,1078.22Z" transform="translate(-292.089 -1062.373)" fill="#6d6e71"/>
        </g>
        <path id="Caminho_135" data-name="Caminho 135" d="M261.066,957.234l-100.507,16.1,76.335,41.37Z" transform="translate(-141.325 -723.085)" fill="#89d4e3"/>
      </g>
    </g>
    <path id="Caminho_136" data-name="Caminho 136" d="M630.553,684.906,735.5,741.8,598.1,822.552" transform="translate(-79.733 -36.324)" fill="none" stroke="#6d6e71" stroke-miterlimit="10" stroke-width="3.008" stroke-dasharray="3 6"/>
  </g>
</svg>
