<svg xmlns="http://www.w3.org/2000/svg" width="595.37" height="595.391" viewBox="0 0 595.37 595.391">
  <g id="logo_2" data-name="logo 2" transform="translate(-183.026 -182.909)">
    <g id="Grupo_2" data-name="Grupo 2" transform="translate(679.29 537.138)">
      <path id="Caminho_91" data-name="Caminho 91" d="M1556.318,1153.491a12.193,12.193,0,0,0-6.67-6.724,13.359,13.359,0,0,0-9.988,0,12.047,12.047,0,0,0-4.006,2.689,12.561,12.561,0,0,0-2.693,4.034,13.373,13.373,0,0,0,0,9.939,12.665,12.665,0,0,0,2.693,4.008,12.026,12.026,0,0,0,4.006,2.656,13.358,13.358,0,0,0,9.988,0,12.29,12.29,0,0,0,4.016-2.656,12.953,12.953,0,0,0,2.654-13.947Zm-1.406,9.379a10.943,10.943,0,0,1-2.346,3.566,11.1,11.1,0,0,1-15.868,0,10.805,10.805,0,0,1-2.319-3.566,12.187,12.187,0,0,1,0-8.835,10.968,10.968,0,0,1,2.319-3.574,11.163,11.163,0,0,1,15.868,0,11.11,11.11,0,0,1,2.346,3.574,12.024,12.024,0,0,1,0,8.835Z" transform="translate(-1532.004 -1145.799)" fill="#fefefe"/>
      <path id="Caminho_92" data-name="Caminho 92" d="M1561.121,1170.822a4.489,4.489,0,0,0,1.156-.347,2.742,2.742,0,0,0,.916-.614,2.7,2.7,0,0,0,.642-.97,3.564,3.564,0,0,0,.225-1.327,3.075,3.075,0,0,0-.9-2.4,4.333,4.333,0,0,0-2.9-.823H1555.8V1176h1.417v-5.182h2.428l3.277,5.182h1.679Zm-2-1.225h-1.9v-4.034h2.651a6.514,6.514,0,0,1,1.024.08,2.523,2.523,0,0,1,.875.31,1.684,1.684,0,0,1,.631.61,2.028,2.028,0,0,1,.229,1,2.057,2.057,0,0,1-.3,1.164,1.9,1.9,0,0,1-.791.611,3.638,3.638,0,0,1-1.136.212C1559.993,1169.589,1559.552,1169.6,1559.12,1169.6Z" transform="translate(-1547.048 -1157.518)" fill="#fefefe"/>
    </g>
    <path id="Caminho_93" data-name="Caminho 93" d="M371.4,963.391a.174.174,0,0,0-.013-.235l-2.162-2.072a.166.166,0,0,0-.246.016,25.8,25.8,0,0,1-9.493,6.994c-10.439,4.744-23.346.97-28.327-9.993-6.055-13.326-.917-27.086,10.58-32.31,12.282-5.581,24.361,1.919,28.029,9.757,3.845,8.216.809,18.527-5.763,13.856-3.278-2.33-3.927-10.471-11.958-11.292a10.743,10.743,0,0,1-2.325-.4,9.348,9.348,0,0,1-3.238-2,14.106,14.106,0,0,1-3.12-4.451.17.17,0,0,0-.324.056l-.847,9.068a.173.173,0,0,1-.023.071L335.931,951a.17.17,0,0,0,.04.219l2.611,2.1a.17.17,0,0,0,.257-.053l5.984-11.369a.173.173,0,0,0,.019-.061l.317-3.067a.169.169,0,0,1,.3-.085,7.78,7.78,0,0,0,2.346,1.976,11.6,11.6,0,0,0,3.1.982c5.812.873,6.3,7.4,9.768,10.463a9.711,9.711,0,0,0,1.76,1.45l0,0c.146.075.5.217.532.227a.272.272,0,0,1,.039.012c8.429,4.152,17.555-4.228,10.678-19.844-4.853-11.02-20.489-17.01-32.761-11.433-15.658,7.115-19.758,24.284-13.613,37.807,5.727,12.6,21.258,16.532,32.825,11.276A30.046,30.046,0,0,0,371.4,963.391Z" transform="translate(-89.481 -466.179)" fill="#fefefe"/>
    <path id="Caminho_94" data-name="Caminho 94" d="M1566.791,963.391a.174.174,0,0,0-.013-.235l-2.162-2.072a.166.166,0,0,0-.246.016,25.8,25.8,0,0,1-9.493,6.994c-10.439,4.744-23.346.97-28.327-9.993-6.055-13.326-.917-27.086,10.58-32.31,12.282-5.581,24.361,1.919,28.029,9.757,3.845,8.216.809,18.527-5.762,13.856-3.278-2.33-3.927-10.471-11.958-11.292a10.744,10.744,0,0,1-2.325-.4,9.349,9.349,0,0,1-3.238-2,14.108,14.108,0,0,1-3.12-4.451.17.17,0,0,0-.324.056l-.847,9.068a.171.171,0,0,1-.023.071L1531.326,951a.17.17,0,0,0,.04.219l2.611,2.1a.17.17,0,0,0,.257-.053l5.984-11.369a.169.169,0,0,0,.019-.061l.317-3.067a.169.169,0,0,1,.3-.085,7.779,7.779,0,0,0,2.346,1.976,11.6,11.6,0,0,0,3.1.982c5.812.873,6.3,7.4,9.768,10.463a9.705,9.705,0,0,0,1.76,1.45l0,0c.146.075.5.217.532.227a.267.267,0,0,1,.039.012c8.429,4.152,17.555-4.228,10.679-19.844-4.854-11.02-20.489-17.01-32.761-11.433-15.658,7.115-19.758,24.284-13.613,37.807,5.727,12.6,21.258,16.532,32.824,11.276A30.045,30.045,0,0,0,1566.791,963.391Z" transform="translate(-845.112 -466.179)" fill="#fefefe"/>
    <path id="Caminho_95" data-name="Caminho 95" d="M778.526,426.876a269.474,269.474,0,1,0,20.445,102.961A268.894,268.894,0,0,0,778.526,426.876ZM285.8,428.714a264.2,264.2,0,0,1,503.866,52.672H700.7a175.452,175.452,0,0,0-6.739-19.408,177.506,177.506,0,0,0-334.794,19.408H270.192A263.359,263.359,0,0,1,285.8,428.714ZM702.557,529.838a171.963,171.963,0,1,1-13.065-66.021A172.162,172.162,0,0,1,702.557,529.838Zm-436.82,0a265.257,265.257,0,0,1,3.6-43.607h88.526a178.566,178.566,0,0,0,0,87.217H269.339A265.265,265.265,0,0,1,265.737,529.838ZM774.058,630.965a264.2,264.2,0,0,1-503.866-52.672h88.973a177.5,177.5,0,0,0,341.533,0h88.973A263.357,263.357,0,0,1,774.058,630.965ZM702,573.448a178.579,178.579,0,0,0,0-87.217h88.526a265.789,265.789,0,0,1,0,87.217Z" transform="translate(-49.221 -49.235)" fill="#fefefe"/>
    <path id="Caminho_96" data-name="Caminho 96" d="M711.724,546.954a2.424,2.424,0,0,0-4.848,0v29.413a2.424,2.424,0,1,0,4.848,0V546.954Zm28.137,2.884a2.422,2.422,0,0,0-4.771-.833l-5.111,28.962a2.421,2.421,0,1,0,4.771.833l5.112-28.961Zm27.2,7.724a2.417,2.417,0,0,0-4.545-1.645l-10.063,27.636A2.417,2.417,0,1,0,757,585.2l10.063-27.637Zm25.45,12.339a2.417,2.417,0,0,0-4.184-2.42l-14.707,25.471a2.415,2.415,0,1,0,4.18,2.42L792.513,569.9Zm22.927,16.561-18.907,22.529a2.417,2.417,0,1,1-3.708-3.1l18.9-22.529a2.419,2.419,0,0,1,3.713,3.1Zm19.69,20.3a2.419,2.419,0,0,0-3.1-3.712L809.5,621.959a2.419,2.419,0,0,0,3.105,3.709l22.529-18.9ZM851,630.167l-25.471,14.7a2.413,2.413,0,1,1-2.4-4.184l25.47-14.7a2.413,2.413,0,0,1,2.4,4.184Zm11.572,25.807a2.415,2.415,0,1,0-1.645-4.541l-27.636,10.055a2.417,2.417,0,0,0,1.645,4.545l27.637-10.059Zm6.912,27.431a2.421,2.421,0,0,0-.829-4.771l-28.966,5.107a2.421,2.421,0,1,0,.833,4.771l28.961-5.107Zm2.051,28.2a2.412,2.412,0,0,0,0-4.824l-29.413,0a2.414,2.414,0,0,0,0,4.828Zm-2.88,28.145a2.421,2.421,0,0,0,.829-4.771l-28.961-5.107a2.421,2.421,0,1,0-.833,4.771l28.966,5.107Zm-7.728,27.206a2.417,2.417,0,0,0,1.645-4.546l-27.637-10.063a2.417,2.417,0,0,0-1.645,4.546l27.636,10.063ZM848.59,792.4a2.416,2.416,0,0,0,2.424-4.18l-25.47-14.711a2.418,2.418,0,1,0-2.425,4.184L848.59,792.4ZM832.03,815.333,809.5,796.426a2.42,2.42,0,0,1,3.106-3.713l22.529,18.907a2.42,2.42,0,0,1-3.106,3.713Zm-20.3,19.691a2.419,2.419,0,0,0,3.713-3.1l-18.907-22.534a2.418,2.418,0,0,0-3.708,3.106l18.9,22.53Zm-23.4,15.871-14.707-25.471a2.413,2.413,0,1,1,4.184-2.4l14.7,25.47a2.411,2.411,0,1,1-4.18,2.4Zm-25.812,11.572a2.415,2.415,0,0,0,4.541-1.645L757,833.186a2.417,2.417,0,1,0-4.545,1.645l10.058,27.637Zm-27.431,6.916a2.421,2.421,0,1,0,4.771-.833l-5.1-28.966a2.422,2.422,0,1,0-4.771.833l5.1,28.966Zm-28.2,2.047a2.412,2.412,0,1,0,4.824,0l0-29.413a2.414,2.414,0,0,0-4.828,0v29.413Zm-28.145-2.88a2.421,2.421,0,1,0,4.771.833l5.107-28.966a2.421,2.421,0,0,0-4.771-.833l-5.107,28.966Zm-27.2-7.728a2.415,2.415,0,0,0,4.541,1.645l10.063-27.637a2.417,2.417,0,1,0-4.546-1.645l-10.058,27.636Zm-25.45-12.339a2.416,2.416,0,0,0,4.18,2.424l14.711-25.475a2.417,2.417,0,0,0-4.184-2.42L626.09,848.483Zm-22.931-16.561,18.907-22.529a2.419,2.419,0,1,1,3.713,3.1l-18.907,22.534a2.42,2.42,0,0,1-3.712-3.106Zm-19.691-20.3a2.419,2.419,0,0,0,3.1,3.713L609.1,796.426a2.417,2.417,0,0,0-3.1-3.708l-22.534,18.9Zm-15.871-23.4,25.475-14.707a2.411,2.411,0,0,1,2.4,4.18L570,792.4a2.411,2.411,0,1,1-2.4-4.18ZM556.025,762.41a2.417,2.417,0,0,0,1.645,4.546l27.641-10.063a2.416,2.416,0,1,0-1.649-4.541L556.025,762.41Zm-6.912-27.431a2.421,2.421,0,0,0,.829,4.771l28.97-5.1a2.424,2.424,0,0,0-.833-4.775l-28.966,5.107Zm-2.051-28.2a2.412,2.412,0,1,0,0,4.824l29.413,0a2.414,2.414,0,0,0,0-4.828Zm2.88-28.145a2.421,2.421,0,0,0-.829,4.771l28.966,5.107a2.421,2.421,0,1,0,.833-4.771l-28.97-5.107Zm7.728-27.2a2.415,2.415,0,1,0-1.645,4.541l27.636,10.063a2.416,2.416,0,1,0,1.649-4.541l-27.641-10.063Zm12.339-25.45a2.418,2.418,0,0,0-2.424,4.184l25.474,14.706a2.418,2.418,0,0,0,2.425-4.184l-25.475-14.707Zm16.561-22.931L609.1,621.963A2.418,2.418,0,0,1,606,625.671l-22.534-18.907a2.42,2.42,0,0,1,3.106-3.712Zm20.3-19.691a2.419,2.419,0,0,0-3.712,3.1L622.066,609a2.419,2.419,0,0,0,3.713-3.1l-18.907-22.534Zm23.4-15.871,14.706,25.475a2.411,2.411,0,1,1-4.18,2.4L626.09,569.894a2.411,2.411,0,1,1,4.18-2.4Zm25.811-11.572a2.415,2.415,0,0,0-4.541,1.645L661.6,585.2a2.415,2.415,0,1,0,4.542-1.645l-10.059-27.641Zm27.431-6.912a2.421,2.421,0,1,0-4.771.833l5.107,28.966a2.421,2.421,0,1,0,4.771-.833Z" transform="translate(-228.589 -228.59)" fill="#fefefe"/>
    <path id="Caminho_97" data-name="Caminho 97" d="M483.135,185.334a2.424,2.424,0,1,0-4.848,0v14.116a2.424,2.424,0,1,0,4.848,0V185.334Zm25.7,1.321a2.423,2.423,0,0,0-4.828-.414l-1.235,14.116a2.423,2.423,0,0,0,4.828.414l1.235-14.116Zm25.511,3.557a2.421,2.421,0,1,0-4.771-.833l-2.461,13.968a2.421,2.421,0,1,0,4.771.833l2.461-13.968Zm25.106,5.772a2.419,2.419,0,1,0-4.672-1.251l-3.675,13.713a2.42,2.42,0,1,0,4.677,1.247l3.671-13.71Zm24.507,7.938a2.416,2.416,0,1,0-4.542-1.649l-4.857,13.348a2.415,2.415,0,1,0,4.541,1.645l4.858-13.344Zm23.727,10.054a2.423,2.423,0,0,0-4.394-2.043l-6,12.873a2.423,2.423,0,0,0,4.393,2.047l6-12.877Zm22.747,12.081a2.413,2.413,0,1,0-4.184-2.4l-7.1,12.3a2.411,2.411,0,1,0,4.18,2.4l7.1-12.3Zm21.606,14.034a2.414,2.414,0,0,0-3.959-2.765l-8.135,11.621a2.414,2.414,0,0,0,3.959,2.765l8.135-11.622Zm20.306,15.859a2.419,2.419,0,0,0-3.713-3.1l-9.107,10.858a2.418,2.418,0,0,0,3.708,3.105l9.111-10.863Zm18.849,17.57a2.423,2.423,0,0,0-3.429-3.425l-10.018,10.022a2.423,2.423,0,0,0,3.429,3.425L691.2,273.519Zm17.246,19.129a2.419,2.419,0,0,0-3.106-3.709l-10.859,9.111a2.42,2.42,0,0,0,3.106,3.713l10.859-9.115ZM723.972,313.2a2.413,2.413,0,0,0-2.765-3.955l-11.625,8.143a2.413,2.413,0,0,0,2.765,3.955l11.626-8.143Zm13.685,21.836a2.418,2.418,0,0,0-2.424-4.184l-12.3,7.1a2.416,2.416,0,0,0,2.425,4.18l12.3-7.1Zm11.712,22.951a2.421,2.421,0,1,0-2.043-4.389L734.445,359.6a2.421,2.421,0,1,0,2.042,4.389l12.881-6.006Zm9.665,23.879a2.418,2.418,0,1,0-1.649-4.545l-13.357,4.865a2.415,2.415,0,1,0,1.648,4.541l13.357-4.861Zm7.54,24.638a2.42,2.42,0,1,0-1.247-4.677L751.6,405.507a2.42,2.42,0,0,0,1.247,4.677l13.722-3.68Zm5.357,25.2a2.422,2.422,0,0,0-.833-4.771L757.122,429.4a2.422,2.422,0,1,0,.833,4.771l13.976-2.466Zm3.142,25.569a2.421,2.421,0,1,0-.418-4.825l-14.124,1.235a2.423,2.423,0,0,0,.418,4.828l14.124-1.239Zm.911,25.737a2.414,2.414,0,0,0,0-4.828H761.811a2.414,2.414,0,1,0,0,4.828Zm-1.329,25.737a2.423,2.423,0,1,0,.418-4.828l-14.124-1.235a2.423,2.423,0,0,0-.414,4.828l14.12,1.235ZM771.1,534.268a2.423,2.423,0,0,0,.833-4.775l-13.972-2.461a2.422,2.422,0,0,0-.833,4.771l13.972,2.465Zm-5.772,25.106a2.42,2.42,0,0,0,1.251-4.677l-13.722-3.675a2.42,2.42,0,0,0-1.247,4.677l13.718,3.676Zm-7.938,24.506a2.417,2.417,0,0,0,1.645-4.545l-13.349-4.857a2.416,2.416,0,1,0-1.649,4.541l13.353,4.861ZM747.33,607.6a2.421,2.421,0,1,0,2.043-4.389L736.5,597.208a2.423,2.423,0,0,0-2.043,4.393l12.877,6Zm-12.085,22.747a2.414,2.414,0,0,0,2.408-4.184l-12.3-7.1a2.411,2.411,0,1,0-2.4,4.18l12.295,7.1Zm-14.03,21.607A2.413,2.413,0,1,0,723.976,648l-11.621-8.135a2.411,2.411,0,1,0-2.761,3.954l11.621,8.139Zm-15.867,20.306a2.42,2.42,0,0,0,3.105-3.713L697.6,659.443a2.418,2.418,0,1,0-3.105,3.708l10.855,9.111Zm-17.57,18.845a2.422,2.422,0,1,0,3.426-3.425L681.19,677.664a2.424,2.424,0,0,0-3.425,3.429l10.013,10.014Zm-19.132,17.246a2.418,2.418,0,1,0,3.712-3.1L663.251,694.4a2.419,2.419,0,1,0-3.712,3.1l9.107,10.854ZM648.1,723.876a2.412,2.412,0,1,0,3.954-2.765L643.917,709.5a2.411,2.411,0,1,0-3.954,2.761l8.135,11.617Zm-21.836,13.681a2.417,2.417,0,0,0,4.184-2.42l-7.1-12.295a2.418,2.418,0,0,0-4.184,2.424l7.1,12.29ZM603.31,749.273a2.422,2.422,0,0,0,4.393-2.043L601.7,734.357a2.422,2.422,0,1,0-4.39,2.047l6,12.869Zm-23.879,9.661a2.418,2.418,0,1,0,4.545-1.649l-4.857-13.34a2.417,2.417,0,0,0-4.546,1.645l4.857,13.345Zm-24.638,7.54a2.418,2.418,0,0,0,4.672-1.247l-3.671-13.709a2.42,2.42,0,0,0-4.677,1.247l3.676,13.71Zm-25.2,5.357a2.422,2.422,0,0,0,4.771-.837L531.9,757.03a2.422,2.422,0,0,0-4.771.837l2.461,13.964Zm-25.573,3.138a2.423,2.423,0,0,0,4.828-.418l-1.235-14.107a2.421,2.421,0,1,0-4.824.414l1.231,14.112Zm-25.746.906a2.424,2.424,0,0,0,4.849,0V761.719a2.424,2.424,0,0,0-4.849,0v14.157Zm-25.725-1.325a2.423,2.423,0,1,0,4.828.414l1.235-14.108a2.423,2.423,0,1,0-4.828-.414l-1.235,14.107Zm-25.512-3.561a2.419,2.419,0,1,0,4.767.833l2.462-13.955a2.42,2.42,0,1,0-4.767-.837l-2.461,13.96Zm-25.106-5.772a2.42,2.42,0,1,0,4.677,1.247l3.667-13.7a2.418,2.418,0,1,0-4.672-1.247l-3.671,13.7Zm-24.507-7.942a2.417,2.417,0,0,0,4.546,1.645l4.853-13.333a2.417,2.417,0,0,0-4.545-1.645l-4.853,13.332Zm-23.727-10.059a2.423,2.423,0,0,0,4.394,2.043l6-12.856a2.424,2.424,0,0,0-4.394-2.047l-6,12.86Zm-22.739-12.093a2.415,2.415,0,0,0,4.18,2.42l7.089-12.278a2.418,2.418,0,0,0-4.184-2.424l-7.085,12.282ZM309.35,721.1a2.412,2.412,0,1,0,3.955,2.761l8.122-11.6a2.412,2.412,0,1,0-3.955-2.761l-8.122,11.6Zm-20.306-15.867a2.418,2.418,0,0,0,3.708,3.106l9.094-10.838a2.417,2.417,0,1,0-3.708-3.1l-9.094,10.834ZM270.2,687.662a2.422,2.422,0,1,0,3.426,3.425l10-10a2.424,2.424,0,0,0-3.429-3.425l-10,10Zm-17.246-19.129a2.419,2.419,0,0,0,3.105,3.709l10.834-9.091a2.417,2.417,0,1,0-3.1-3.708l-10.838,9.09Zm-15.519-20.552a2.412,2.412,0,0,0,2.761,3.955l11.6-8.118a2.411,2.411,0,1,0-2.761-3.954l-11.6,8.118Zm-13.681-21.836a2.418,2.418,0,0,0,2.425,4.184l12.266-7.085a2.415,2.415,0,1,0-2.421-4.18l-12.27,7.081Zm-11.712-22.952a2.422,2.422,0,0,0,2.043,4.393l12.844-5.989a2.423,2.423,0,1,0-2.043-4.394l-12.844,5.99Zm-9.657-23.875a2.415,2.415,0,1,0,1.645,4.542l13.315-4.845a2.417,2.417,0,0,0-1.645-4.545l-13.316,4.849Zm-7.544-24.637a2.42,2.42,0,0,0,1.251,4.676l13.681-3.667a2.42,2.42,0,0,0-1.247-4.677l-13.685,3.668Zm-5.353-25.2a2.422,2.422,0,0,0,.833,4.771l13.935-2.458a2.421,2.421,0,1,0-.833-4.771l-13.935,2.457Zm-3.138-25.569a2.423,2.423,0,0,0,.414,4.828l14.083-1.235a2.421,2.421,0,1,0-.415-4.824l-14.083,1.23Zm-.91-25.737a2.414,2.414,0,0,0,0,4.828l14.132,0a2.416,2.416,0,0,0,0-4.833Zm1.329-25.733a2.423,2.423,0,0,0-.418,4.828l14.083,1.231a2.421,2.421,0,1,0,.415-4.824l-14.079-1.235Zm3.557-25.511a2.421,2.421,0,1,0-.833,4.771l13.931,2.457a2.422,2.422,0,0,0,.833-4.771l-13.931-2.457Zm5.772-25.1a2.418,2.418,0,1,0-1.247,4.672l13.677,3.667a2.42,2.42,0,0,0,1.247-4.677L196.1,401.828Zm7.942-24.507a2.417,2.417,0,1,0-1.645,4.545l13.308,4.845a2.417,2.417,0,0,0,1.645-4.545l-13.308-4.845ZM214.1,353.6a2.423,2.423,0,0,0-2.043,4.394l12.832,5.981a2.421,2.421,0,1,0,2.043-4.39L214.1,353.6Zm12.093-22.742a2.418,2.418,0,0,0-2.425,4.184l12.257,7.076a2.417,2.417,0,1,0,2.421-4.184l-12.253-7.076Zm14.021-21.6a2.413,2.413,0,0,0-2.765,3.955l11.581,8.11a2.413,2.413,0,1,0,2.765-3.955l-11.58-8.11Zm15.863-20.306a2.42,2.42,0,1,0-3.105,3.713l10.818,9.078a2.42,2.42,0,1,0,3.105-3.712l-10.818-9.078ZM273.64,270.1a2.424,2.424,0,0,0-3.425,3.429l9.981,9.981a2.422,2.422,0,0,0,3.426-3.426L273.64,270.1Zm19.133-17.246a2.42,2.42,0,1,0-3.712,3.106l9.078,10.818a2.417,2.417,0,1,0,3.708-3.1l-9.074-10.822Zm20.548-15.522a2.414,2.414,0,0,0-3.959,2.765l8.11,11.581a2.411,2.411,0,0,0,3.955-2.761l-8.106-11.585Zm21.832-13.669a2.413,2.413,0,1,0-4.184,2.4l7.076,12.253a2.411,2.411,0,1,0,4.18-2.4l-7.073-12.253ZM358.1,211.941a2.422,2.422,0,0,0-4.393,2.043l5.985,12.832a2.421,2.421,0,1,0,4.389-2.043L358.1,211.941Zm23.879-9.661a2.417,2.417,0,0,0-4.546,1.645l4.841,13.3a2.417,2.417,0,0,0,4.545-1.645l-4.84-13.3Zm24.633-7.54a2.418,2.418,0,1,0-4.672,1.247l3.659,13.669a2.42,2.42,0,1,0,4.677-1.251l-3.663-13.665Zm25.2-5.357a2.421,2.421,0,1,0-4.771.833l2.453,13.923a2.421,2.421,0,1,0,4.771-.833l-2.453-13.923Zm25.569-3.138a2.423,2.423,0,0,0-4.828.414l1.231,14.071a2.423,2.423,0,0,0,4.828-.419Z" fill="#fefefe"/>
    <path id="Caminho_98" data-name="Caminho 98" d="M444.979,697.529l.022-.047c.248.126.433.1.56-.067.047-.013.119-.111.21-.3l.649.329-1.7,3.334-.025.047-1.527,3.012-.651-.329c.124-.25.146-.423.062-.525a.839.839,0,0,0-.218-.2l-12.378-4.312-3.159,6.205,10.733,7.438a.377.377,0,0,0,.535-.02c.045-.015.109-.1.188-.252l.646.327-1.53,3.015-.022.045-1.7,3.337-.649-.332c.079-.156.111-.257.1-.3a.412.412,0,0,0-.253-.539l-40.134-29.738a.377.377,0,0,0-.535.022c-.047.015-.111.1-.188.255l-.649-.334,1.555-3.055,1.552-3.059.651.332c-.079.156-.111.255-.1.3a.383.383,0,0,0,.3.445Zm-39.634-7.683,17.089,11.78,2.5-4.909Z" transform="translate(-132.962 -315.16)" fill="#fefefe"/>
    <path id="Caminho_99" data-name="Caminho 99" d="M500.339,518.576l3.074-3.245.753-.79.564.537c-.144.151-.213.25-.213.3-.141.247-.109.418.087.51L532.4,542.234l2.148,2.039.3.282-.035.04a9.338,9.338,0,0,1,2.6,6.4,9.151,9.151,0,0,1-2.547,6.386,9.532,9.532,0,0,1-2.941,2.119,8.984,8.984,0,0,1-3.376.842,9.318,9.318,0,0,1-3.411-.475,8.1,8.1,0,0,1-3.047-1.852l-30.24-28.668a.413.413,0,0,0-.518-.057c-.047,0-.143.077-.287.228l-.564-.537.75-.789,3.074-3.245.75-.79.564.535c-.141.151-.213.252-.21.3-.141.248-.111.421.087.512l29.938,28.384a3.91,3.91,0,0,0,2.842,1.119,3.786,3.786,0,0,0,2.78-1.232,3.994,3.994,0,0,0-.151-5.656l-2.148-2.04-27.792-26.344a.4.4,0,0,0-.515-.06c-.05,0-.146.077-.287.228l-.567-.537Z" transform="translate(-194.344 -209.631)" fill="#fefefe"/>
    <path id="Caminho_100" data-name="Caminho 100" d="M654.656,400.535l.518.9,2.218,3.879.515.9-.629.361c-.1-.183-.178-.28-.228-.29a.4.4,0,0,0-.515-.064l-4.874,2.784,22.166,38.758a.329.329,0,0,0,.5.25c.047.015.161-.032.341-.134l.359.629-.945.542-3.834,2.2-.9.515-.362-.631c.151-.086.233-.151.245-.2a.4.4,0,0,0,.082-.586l-22.161-38.755-4.874,2.787c-.24.136-.324.3-.253.5a.72.72,0,0,0,.136.344l-.631.359-.518-.9-2.215-3.879-.52-.9.633-.364c.1.183.178.28.225.292a.331.331,0,0,0,.562.039l14.257-8.156c.213-.04.282-.2.206-.475.012-.047-.032-.161-.136-.341Z" transform="translate(-287.773 -137.565)" fill="#fefefe"/>
    <path id="Caminho_101" data-name="Caminho 101" d="M819.125,339.964l12.292-2.894.913-.213,1.047,4.45.309,1.317-.708.166c-.064-.27-.156-.428-.272-.471a1.969,1.969,0,0,0-.287-.092l-11.738,2.762,3.451,14.671,5.666-1.334a.412.412,0,0,0,.337-.4.552.552,0,0,0-.022-.314l.708-.168.309,1.317.869,3.693.309,1.314-.708.166a.569.569,0,0,0-.121-.292.407.407,0,0,0-.478-.206l-5.666,1.332,4.785,20.337,11.738-2.76a.5.5,0,0,0,.228-.163c.086-.089.1-.272.035-.539l.708-.166.312,1.314,1.032,4.4-.911.215L830.969,390.3l.012.052-5.416,1.272-.166-.71c.3-.069.475-.181.51-.331a.9.9,0,0,0,.032-.327L814.655,342.3a.8.8,0,0,0-.173-.28c-.1-.119-.3-.141-.6-.069l-.163-.708Z" transform="translate(-398.669 -97.314)" fill="#fefefe"/>
    <path id="Caminho_102" data-name="Caminho 102" d="M1018.45,325.766l1.089.069-.044.723c-.208-.013-.329,0-.366.03-.28.052-.393.2-.339.448l-2.983,49.183c-.084.275.007.436.282.485.032.037.153.062.361.074l-.044.728-1.089-.067-4.463-.27-1.089-.067.044-.725a.727.727,0,0,0,.448-.077q.134-.1.245-.193l-7.285-31.844-1.886,31.077a.408.408,0,0,0,.334.49.661.661,0,0,0,.361.074l-.045.728-1.091-.067-4.461-.272-1.089-.064.044-.725c.173.01.277,0,.314-.035.245-.017.374-.168.391-.445l2.983-49.186a.9.9,0,0,0-.087-.262c-.062-.143-.25-.225-.559-.242l.045-.728,1.089.07,4.463.27,1.089.064-.045.728c-.312-.02-.5.03-.582.143s-.133.213-.171.28l7.267,32.151,1.913-31.594a.437.437,0,0,0-.282-.485c-.032-.04-.151-.064-.359-.077l.045-.725,1.087.067Z" transform="translate(-513.479 -89.569)" fill="#fefefe"/>
    <path id="Caminho_103" data-name="Caminho 103" d="M1197.9,364.736l-.364.973-1.562,4.186-.364.975-.683-.255c.074-.193.1-.312.079-.359a.4.4,0,0,0-.28-.436l-5.257-1.965-15.609,41.827a.327.327,0,0,0,.129.545c.02.044.129.1.324.178l-.255.681-1.022-.381-4.139-1.544-.975-.364.255-.681c.163.057.267.082.309.06a.408.408,0,0,0,.505-.309l15.609-41.824-5.26-1.963c-.26-.1-.443-.054-.544.129-.047.02-.106.129-.178.322l-.681-.253.364-.975,1.562-4.185.364-.975.681.255a.716.716,0,0,0-.079.361c-.064.27.047.421.329.451l15.386,5.745q.256.2.5-.148c.047-.02.1-.127.178-.322Z" transform="translate(-622.572 -110.767)" fill="#fefefe"/>
    <path id="Caminho_104" data-name="Caminho 104" d="M1312.209,436.774l.906.611-.406.6c-.171-.116-.282-.168-.332-.158a.405.405,0,0,0-.562.185l-27.488,40.874a.4.4,0,0,0,.04.589c.01.049.1.129.272.248l-.406.6-.9-.611-3.708-2.493-.908-.609.408-.6c.143.1.24.143.287.131a.406.406,0,0,0,.562-.186l27.49-40.874a.781.781,0,0,0,.089-.317c.02-.153-.1-.317-.362-.493l.409-.6.906.611Z" transform="translate(-692.604 -158.513)" fill="#fefefe"/>
    <path id="Caminho_105" data-name="Caminho 105" d="M1407.088,550.925l-.911-1,.539-.493c.117.129.2.193.247.2a.362.362,0,0,0,.517-.05l2.347-2.131a4,4,0,1,0-5.384-5.923l-24.617,22.379a4,4,0,1,0,5.386,5.923l2.193-1.995a.413.413,0,0,0,.1-.51c0-.049-.055-.136-.171-.265l.54-.49.908,1,2.552,2.807.909,1-.537.487c-.117-.126-.2-.193-.25-.2a.407.407,0,0,0-.517.049l-2.193,2a9.033,9.033,0,0,1-3.161,1.889,9.2,9.2,0,0,1-6.938-.329,9.057,9.057,0,0,1-2.97-2.183,9.565,9.565,0,0,1-1.9-3.089,9.093,9.093,0,0,1-.589-3.431,9.352,9.352,0,0,1,.73-3.371,8.068,8.068,0,0,1,2.03-2.866l24.963-22.691a9.007,9.007,0,0,1,3.163-1.893,9.352,9.352,0,0,1,3.5-.515,9.447,9.447,0,0,1,3.438.844,9.327,9.327,0,0,1,4.859,5.346,9.215,9.215,0,0,1-.329,6.941,9.037,9.037,0,0,1-2.183,2.968l-2.346,2.134a.364.364,0,0,0-.1.51c0,.05.055.136.171.268l-.54.487-.908-1Z" transform="translate(-752.322 -222.705)" fill="#fefefe"/>
    <path id="Caminho_106" data-name="Caminho 106" d="M1509.332,693.751a8.96,8.96,0,0,1-5.025,8.572l-27.193,13.336-1.354.663-1.773.872a8.81,8.81,0,0,1-3.455.913,8.98,8.98,0,0,1-6.4-2.186,8.823,8.823,0,0,1-2.173-2.839,9.006,9.006,0,0,1-.916-3.4,9.423,9.423,0,0,1,.374-3.366,8.691,8.691,0,0,1,1.569-2.94,7.78,7.78,0,0,1,2.666-2.119l30.738-15.077a8.817,8.817,0,0,1,3.458-.916,8.982,8.982,0,0,1,6.4,2.186,8.861,8.861,0,0,1,2.173,2.842A8.769,8.769,0,0,1,1509.332,693.751ZM1473.5,711.706l1.349-.666,27.2-13.337a3.811,3.811,0,0,0,1.98-2.218,3.663,3.663,0,0,0-.176-2.951,3.9,3.9,0,0,0-5.213-1.785l-30.319,14.876a3.9,3.9,0,0,0-1.782,5.213,3.678,3.678,0,0,0,2.228,1.946,3.781,3.781,0,0,0,2.963-.21Z" transform="translate(-807.846 -317.541)" fill="#fefefe"/>
    <g id="Grupo_3" data-name="Grupo 3" transform="translate(257.142 556.741)">
      <path id="Caminho_107" data-name="Caminho 107" d="M423.215,1215l-.6-1.266.681-.321c.077.166.139.254.186.271a.377.377,0,0,0,.527.11l2.965-1.4a4.136,4.136,0,1,0-3.52-7.486l-31.119,14.63a4.137,4.137,0,1,0,3.52,7.487l2.772-1.3a.416.416,0,0,0,.252-.473c.017-.048-.012-.15-.089-.316l.681-.318.6,1.265,1.668,3.548.594,1.265-.683.318c-.074-.16-.136-.25-.183-.267a.421.421,0,0,0-.527-.109l-2.77,1.3a9.388,9.388,0,0,1-3.7.907,9.551,9.551,0,0,1-6.755-2.433,9.353,9.353,0,0,1-2.27-3.061,9.774,9.774,0,0,1-.933-3.627,9.384,9.384,0,0,1,.458-3.573,9.6,9.6,0,0,1,1.745-3.1,8.265,8.265,0,0,1,2.876-2.214L421.151,1200a9.353,9.353,0,0,1,3.7-.907,9.5,9.5,0,0,1,6.752,2.433,9.647,9.647,0,0,1,3.178,6.76,9.5,9.5,0,0,1-2.436,6.754,9.272,9.272,0,0,1-3.057,2.27l-2.968,1.394a.377.377,0,0,0-.253.474.6.6,0,0,0,.089.314l-.678.322-.6-1.265Z" transform="translate(-384.494 -1199.083)" fill="#fefefe"/>
      <path id="Caminho_108" data-name="Caminho 108" d="M444.918,1310.369l-1.149.794-3.886,2.688-.55-.793-7.426-10.734-3.267-4.725.619-.428c.183.266.354.386.512.364a.825.825,0,0,0,.327-.094l41.869-28.966a.807.807,0,0,0,.2-.272c.079-.14.025-.341-.158-.605l.619-.427.609.88,2.658,3.845.644.928-.619.427c-.163-.235-.322-.358-.475-.36a2.654,2.654,0,0,0-.349.016l-38.512,26.642,7.084,10.245c.072.038.168.079.287.131s.3-.012.532-.176Z" transform="translate(-412.4 -1242.123)" fill="#fefefe"/>
      <path id="Caminho_109" data-name="Caminho 109" d="M546.613,1344.6l3.2,3.333.782.817-.584.557c-.146-.156-.248-.231-.3-.237-.247-.153-.426-.131-.532.068l-28.577,27.4-2.21,2.119-.309.3-.037-.037a9.7,9.7,0,0,1-3.213,1.847,9.585,9.585,0,0,1-3.525.518,9.458,9.458,0,0,1-3.458-.814,9.35,9.35,0,0,1-3.015-2.135,9.8,9.8,0,0,1-2.045-3.137,9.4,9.4,0,0,1-.7-3.53,9.668,9.668,0,0,1,.663-3.5,8.367,8.367,0,0,1,2.059-3.053L535.9,1335.3a.425.425,0,0,0,.089-.532c0-.047-.072-.151-.223-.306l.584-.56.78.815,3.2,3.335.78.813-.579.56c-.149-.156-.253-.233-.3-.234-.248-.159-.428-.139-.535.063l-30.787,29.521a4.032,4.032,0,0,0-1.292,2.879,3.9,3.9,0,0,0,1.134,2.929,4.123,4.123,0,0,0,5.846.125l2.213-2.119,28.577-27.4a.428.428,0,0,0,.086-.532c0-.051-.074-.153-.223-.309l.584-.557Z" transform="translate(-458.827 -1284.303)" fill="#fefefe"/>
      <path id="Caminho_110" data-name="Caminho 110" d="M607.489,1435.666a21.782,21.782,0,0,1-2.94,5.594,17.2,17.2,0,0,1-4.386,4.291,16.071,16.071,0,0,1-5.183,2.32,13.275,13.275,0,0,1-5.4.182,11.944,11.944,0,0,1-5.02-2.134l-6.015-4.334-.564-.408.471-.654c.262.188.458.253.589.192a.645.645,0,0,0,.26-.177l14.488-20.086,3.238-4.486,12.069-16.73a.871.871,0,0,0,.1-.324c.027-.157-.092-.331-.352-.52l.438-.612.567.408,4.1,2.956.651.472a18.822,18.822,0,0,1,2.611,2.213,9.618,9.618,0,0,1,1.555,2.116,7.555,7.555,0,0,1,.76,2.2,19.753,19.753,0,0,1,.273,2.514,10.719,10.719,0,0,1-.951,4.945,25.625,25.625,0,0,1-2.683,4.688,14.042,14.042,0,0,1-3.881,3.725,13.431,13.431,0,0,1-4.643,1.849,9.523,9.523,0,0,1,.837,3.983A16.767,16.767,0,0,1,607.489,1435.666Zm-8.983-12.475-12.381,17.168,1.483,1.067a5.955,5.955,0,0,0,3.347,1.189,9.033,9.033,0,0,0,3.5-.588,12.259,12.259,0,0,0,3.225-1.808,12.615,12.615,0,0,0,2.512-2.563,16.407,16.407,0,0,0,1.933-3.507,11.463,11.463,0,0,0,.836-3.638,7.627,7.627,0,0,0-.592-3.406,6.792,6.792,0,0,0-2.383-2.845Zm12.75-17.5-9.458,13.118.478.344a5.839,5.839,0,0,0,4.97,1.1q2.576-.628,4.931-3.9a10.268,10.268,0,0,0,1.475-2.878,8.706,8.706,0,0,0,.446-2.86,6.04,6.04,0,0,0-.631-2.574,5.473,5.473,0,0,0-1.73-2.008Z" transform="translate(-506.802 -1324.682)" fill="#fefefe"/>
      <path id="Caminho_111" data-name="Caminho 111" d="M705.821,1452.182l11.758,5.687.869.421-2.059,4.259-.609,1.256-.676-.33q.185-.385.089-.553a2.777,2.777,0,0,0-.173-.262l-11.223-5.427-6.787,14.028,5.419,2.623a.429.429,0,0,0,.527-.1c.05-.017.111-.106.188-.268l.678.327-.609,1.259-1.708,3.528-.609,1.259-.678-.327c.079-.161.112-.265.094-.313a.421.421,0,0,0-.248-.477l-5.416-2.622-9.411,19.446,11.223,5.431a.551.551,0,0,0,.292.021c.124-.019.252-.157.376-.416l.678.329-.609,1.256-2.037,4.211-.869-.421-11.755-5.687-.022.048-5.178-2.506.327-.674c.292.137.5.16.626.061a.837.837,0,0,0,.24-.241l22.183-45.859a.9.9,0,0,0,.045-.339c0-.16-.149-.308-.436-.448l.327-.68Z" transform="translate(-569.605 -1357.487)" fill="#fefefe"/>
      <path id="Caminho_112" data-name="Caminho 112" d="M863.409,1501.92l3.659.611,1.639.272a11.654,11.654,0,0,1,2.921.948,11.94,11.94,0,0,1,3.1,2.124,15.249,15.249,0,0,1,2.777,3.6,20.682,20.682,0,0,1,2.045,5.378,33.444,33.444,0,0,1,.831,7.409,55.382,55.382,0,0,1-.859,9.739,54.126,54.126,0,0,1-2.329,9.386,31.948,31.948,0,0,1-3.173,6.631,19.214,19.214,0,0,1-3.658,4.293,15.287,15.287,0,0,1-3.772,2.394,11.806,11.806,0,0,1-3.589.952,12.23,12.23,0,0,1-3.094-.081l-1.639-.274-3.659-.607-2.015-.336.129-.74a.737.737,0,0,0,.376.006c.218,0,.351-.139.4-.425l.052.007,8.374-50.223-.054-.01a.456.456,0,0,0-.238-.532.728.728,0,0,0-.364-.113l.126-.742Zm3.188,6.03-6.995,41.963,1.166.195a6.133,6.133,0,0,0,3.344-.313,8.737,8.737,0,0,0,2.847-1.865,14.771,14.771,0,0,0,2.346-2.988,28.016,28.016,0,0,0,1.856-3.61,41.85,41.85,0,0,0,3.01-10.225,39.083,39.083,0,0,0,.653-5.691,48.469,48.469,0,0,0-.094-5.162,36.025,36.025,0,0,0-.544-4.093,15.374,15.374,0,0,0-1.178-3.712,9.185,9.185,0,0,0-2.035-2.815,5.972,5.972,0,0,0-3.158-1.48Z" transform="translate(-680.39 -1390.3)" fill="#fefefe"/>
      <path id="Caminho_113" data-name="Caminho 113" d="M987.249,1515.834a9.26,9.26,0,0,1,2.98,1.944,9.379,9.379,0,0,1,2.027,2.929,9.172,9.172,0,0,1,.775,3.616l.408,31.313.022,1.559.025,2.041a9.06,9.06,0,0,1-.678,3.633,9.252,9.252,0,0,1-4.876,5.008,9.121,9.121,0,0,1-3.614.773,9.3,9.3,0,0,1-3.582-.652,9.673,9.673,0,0,1-2.978-1.843,8.937,8.937,0,0,1-2.049-2.763,8,8,0,0,1-.8-3.427l-.465-35.4a9.035,9.035,0,0,1,.676-3.636,9.254,9.254,0,0,1,4.879-5,9.4,9.4,0,0,1,7.248-.094Zm.9,41.43-.02-1.557-.414-31.314a3.938,3.938,0,0,0-1.19-2.829,3.8,3.8,0,0,0-2.837-1.145,4.032,4.032,0,0,0-3.975,4.082l.458,34.911a4.037,4.037,0,0,0,4.082,3.977,3.8,3.8,0,0,0,2.8-1.219,3.918,3.918,0,0,0,1.119-2.865Z" transform="translate(-757.413 -1398.877)" fill="#fefefe"/>
      <path id="Caminho_114" data-name="Caminho 114" d="M1138.128,1504.821l-1.337.4-.218-.719c.171-.053.267-.1.292-.146a.376.376,0,0,0,.185-.5l-.943-3.138a4.135,4.135,0,1,0-7.921,2.38l9.886,32.926a4.135,4.135,0,1,0,7.921-2.379l-.879-2.935a.422.422,0,0,0-.433-.319c-.044-.025-.151-.009-.322.043l-.218-.721,1.337-.4,3.757-1.129,1.337-.4.215.719c-.171.052-.267.1-.292.143a.421.421,0,0,0-.186.5l.881,2.933a9.29,9.29,0,0,1,.351,3.795,9.513,9.513,0,0,1-3.4,6.318,9.281,9.281,0,0,1-3.359,1.8,9.853,9.853,0,0,1-3.725.389,9.345,9.345,0,0,1-3.463-.979,9.691,9.691,0,0,1-2.815-2.183,8.293,8.293,0,0,1-1.767-3.173l-10.025-33.389a9.315,9.315,0,0,1-.351-3.791,9.507,9.507,0,0,1,3.4-6.322,9.649,9.649,0,0,1,7.151-2.148,9.5,9.5,0,0,1,6.322,3.4,9.279,9.279,0,0,1,1.8,3.359l.941,3.137c.072.241.218.349.433.319.044.025.151.011.324-.041l.218.719-1.339.4Z" transform="translate(-851.05 -1384.452)" fill="#fefefe"/>
      <path id="Caminho_115" data-name="Caminho 115" d="M1250.728,1498.936l.05-.021c.126.256.292.355.5.29.047.018.168-.024.361-.116l.332.675-3.473,1.707-.047.023-3.139,1.538-.329-.673c.258-.126.384-.257.376-.395a.857.857,0,0,0-.057-.3l-7.564-11.25-6.465,3.173,4.262,12.816a.392.392,0,0,0,.455.316.563.563,0,0,0,.312-.094l.331.676-3.134,1.54-.049.025-3.471,1.707-.331-.677c.158-.078.248-.142.262-.189a.419.419,0,0,0,.126-.6l-14.752-49.51a.391.391,0,0,0-.453-.316c-.05-.017-.154.015-.315.094l-.331-.676,3.181-1.564,3.183-1.565.334.676c-.161.079-.25.142-.265.191a.386.386,0,0,0-.03.551Zm-28.025-30.952,6.829,20.354,5.111-2.512Z" transform="translate(-908.959 -1361.213)" fill="#fefefe"/>
      <path id="Caminho_116" data-name="Caminho 116" d="M1283.474,1400.734l.042-.033,3.159-2.231.433.611c-.176.126-.267.213-.277.262a.46.46,0,0,0,.015.582l22.381,46.53a.387.387,0,0,0,.5.239c.054.008.151-.039.3-.141l.433.613-2.894,2.048-2.893,2.043-.433-.613c.146-.1.223-.181.233-.229a.4.4,0,0,0-.06-.552l-36.369-36.636-.042.03a.42.42,0,0,0-.586-.176c-.052-.008-.149.036-.295.141l-.436-.615,3.158-2.23.045-.032,2.849-2.016.435.615c-.235.164-.339.314-.309.444a.87.87,0,0,0,.1.291l27.747,29.84-18.856-36.062a.392.392,0,0,0-.5-.239c-.05-.007-.149.04-.292.145l-.436-.617Z" transform="translate(-942.138 -1325.119)" fill="#fefefe"/>
      <path id="Caminho_117" data-name="Caminho 117" d="M1397.556,1389.831l.04-.039c.2.207.391.246.569.121.05,0,.154-.075.3-.227l.527.539-2.762,2.707-.035.039-2.5,2.443-.525-.539c.2-.2.28-.364.233-.489a.847.847,0,0,0-.151-.27l-10.7-8.311-5.139,5.037,8.054,10.829a.388.388,0,0,0,.53.155c.05,0,.139-.061.267-.186l.527.537-2.492,2.445-.037.037-2.762,2.706-.527-.538c.128-.125.193-.213.193-.263a.424.424,0,0,0-.069-.609l-29.5-42.373a.392.392,0,0,0-.53-.156c-.05,0-.139.062-.267.187l-.525-.537,2.53-2.479,2.532-2.482.527.536q-.193.189-.193.264a.388.388,0,0,0,.148.533Zm-36.285-20.6,12.854,17.178,4.064-3.984Z" transform="translate(-994.987 -1299.612)" fill="#fefefe"/>
      <path id="Caminho_118" data-name="Caminho 118" d="M1453.234,1315.918l1.144.8,3.866,2.721-.554.788-7.51,10.676-3.307,4.7-.614-.434c.183-.264.24-.468.164-.608a.792.792,0,0,0-.2-.274l-41.649-29.289a.841.841,0,0,0-.325-.1c-.156-.026-.329.1-.517.358l-.614-.433.619-.877,2.688-3.823.648-.923.614.434a.657.657,0,0,0-.168.567,2.216,2.216,0,0,0,.134.326l38.307,26.941,7.168-10.192a2.374,2.374,0,0,0,.025-.313c0-.129-.114-.276-.346-.442Z" transform="translate(-1028.383 -1262.376)" fill="#fefefe"/>
      <path id="Caminho_119" data-name="Caminho 119" d="M1462.958,1209.182a9.3,9.3,0,0,1,6.609-2.279,9.086,9.086,0,0,1,3.574.936l28.159,13.71,1.4.685,1.837.891a9.123,9.123,0,0,1,2.941,2.24,9.278,9.278,0,0,1,2.282,6.608,9.068,9.068,0,0,1-.938,3.577,9.235,9.235,0,0,1-2.19,2.906,9.716,9.716,0,0,1-2.983,1.834,9,9,0,0,1-3.394.589,8.054,8.054,0,0,1-3.421-.83L1465,1224.55a9.034,9.034,0,0,1-2.943-2.24,9.265,9.265,0,0,1-2.28-6.606,9.242,9.242,0,0,1,.933-3.579A9.116,9.116,0,0,1,1462.958,1209.182Zm37.416,17.832-1.4-.681-28.158-13.713a3.938,3.938,0,0,0-3.067-.209,3.8,3.8,0,0,0-2.294,2.02,4.031,4.031,0,0,0,1.856,5.385l31.4,15.289a4.036,4.036,0,0,0,5.386-1.86,3.786,3.786,0,0,0,.168-3.053,3.92,3.92,0,0,0-2.055-2.285Z" transform="translate(-1064.196 -1204.019)" fill="#fefefe"/>
    </g>
    <path id="Caminho_120" data-name="Caminho 120" d="M823.038,312.354l-3.053-1.692-1.868,2.948-4.577,7.222,4.858-1.158,2.771-4.373,4.685,2.6,5.027-1.2Z" transform="translate(-398.559 -80.755)" fill="#fefefe"/>
    <path id="Caminho_121" data-name="Caminho 121" d="M890.186,863.572a.667.667,0,0,0-.989.065c-8.87,11.111-22.267,20.889-38.149,28.107-41.95,19.063-93.819,3.9-113.839-40.159-24.335-53.551-3.686-108.85,42.516-129.844,49.358-22.429,97.9,7.712,112.639,39.21,15.453,33.017,3.252,74.455-23.158,55.683-13.171-9.363-15.781-42.08-48.056-45.377-1.876-.192-6.352-.523-9.345-1.6a37.553,37.553,0,0,1-13.012-8.043,56.686,56.686,0,0,1-12.54-17.887.681.681,0,0,0-1.3.223l-3.406,36.44a.683.683,0,0,1-.092.284L756.4,823.044a.683.683,0,0,0,.16.88l10.494,8.431a.684.684,0,0,0,1.033-.214l24.045-45.689a.691.691,0,0,0,.075-.248l1.275-12.324a.678.678,0,0,1,1.221-.343,31.258,31.258,0,0,0,9.428,7.939c3.205,2.052,11.1,3.742,12.449,3.945,23.356,3.506,25.324,29.738,39.254,42.048,1.963,2.443,6.9,5.74,7.071,5.828l.019.01c.585.3,2.02.871,2.138.911a1.188,1.188,0,0,1,.155.049c33.872,16.684,70.549-16.992,42.912-79.744-19.5-44.286-82.338-68.359-131.657-45.947-62.925,28.594-79.4,97.59-54.706,151.933,23.016,50.65,85.427,66.438,131.911,45.314,18.776-8.532,33.214-18.515,45.245-32.979a.7.7,0,0,0-.052-.947Z" transform="translate(-333.617 -326.9)" fill="#fefefe"/>
  </g>
</svg>
